<svg version="1.1" xmlns="http://www.w3.org/2000/svg" xmlns:xlink="http://www.w3.org/1999/xlink" width="1124.58984375" height="534"><defs/><g><text fill="#eeeeee" stroke="none" font-family="Arial" font-size="24px" font-style="normal" font-weight="normal" text-decoration="none" x="0" y="0"></text><text fill="#eeeeee" stroke="none" font-family="Arial" font-size="24px" font-style="normal" font-weight="normal" text-decoration="none" x="0" y="30"></text><text fill="#eeeeee" stroke="none" font-family="Arial" font-size="24px" font-style="normal" font-weight="normal" text-decoration="none" x="0" y="60"></text><text fill="#eeeeee" stroke="none" font-family="Arial" font-size="24px" font-style="normal" font-weight="normal" text-decoration="none" x="0" y="90"></text><text fill="#eeeeee" stroke="none" font-family="Arial" font-size="24px" font-style="normal" font-weight="normal" text-decoration="none" x="0" y="120"></text><text fill="#eeeeee" stroke="none" font-family="Arial" font-size="24px" font-style="normal" font-weight="normal" text-decoration="none" x="0" y="150"></text><text fill="#eeeeee" stroke="none" font-family="Arial" font-size="24px" font-style="normal" font-weight="normal" text-decoration="none" x="0" y="180"></text><text fill="#eeeeee" stroke="none" font-family="Arial" font-size="24px" font-style="normal" font-weight="normal" text-decoration="none" x="0" y="210"></text><text fill="#eeeeee" stroke="none" font-family="Arial" font-size="24px" font-style="normal" font-weight="normal" text-decoration="none" x="0" y="240"></text><text fill="#eeeeee" stroke="none" font-family="Arial" font-size="24px" font-style="normal" font-weight="normal" text-decoration="none" x="0" y="270"></text><text fill="#eeeeee" stroke="none" font-family="Arial" font-size="24px" font-style="normal" font-weight="normal" text-decoration="none" x="0" y="300"></text><text fill="#eeeeee" stroke="none" font-family="Arial" font-size="24px" font-style="normal" font-weight="normal" text-decoration="none" x="0" y="330"></text><text fill="#eeeeee" stroke="none" font-family="Arial" font-size="24px" font-style="normal" font-weight="normal" text-decoration="none" x="0" y="360"></text><text fill="#eeeeee" stroke="none" font-family="Arial" font-size="24px" font-style="normal" font-weight="normal" text-decoration="none" x="0" y="390"></text><text fill="#eeeeee" stroke="none" font-family="Arial" font-size="24px" font-style="normal" font-weight="normal" text-decoration="none" x="0" y="420"></text><text fill="#eeeeee" stroke="none" font-family="Arial" font-size="24px" font-style="normal" font-weight="normal" text-decoration="none" x="0" y="450"></text><text fill="#eeeeee" stroke="none" font-family="Arial" font-size="24px" font-style="normal" font-weight="normal" text-decoration="none" x="0" y="480"></text><text fill="#eeeeee" stroke="none" font-family="Arial" font-size="24px" font-style="normal" font-weight="normal" text-decoration="none" x="0" y="510"></text><text fill="#eeeeee" stroke="none" font-family="Arial" font-size="24px" font-style="normal" font-weight="normal" text-decoration="none" x="200" y="0"></text><text fill="#eeeeee" stroke="none" font-family="Arial" font-size="24px" font-style="normal" font-weight="normal" text-decoration="none" x="200" y="30"></text><text fill="#eeeeee" stroke="none" font-family="Arial" font-size="24px" font-style="normal" font-weight="normal" text-decoration="none" x="200" y="60"></text><text fill="#eeeeee" stroke="none" font-family="Arial" font-size="24px" font-style="normal" font-weight="normal" text-decoration="none" x="200" y="90"></text><text fill="#eeeeee" stroke="none" font-family="Arial" font-size="24px" font-style="normal" font-weight="normal" text-decoration="none" x="200" y="120"></text><text fill="#eeeeee" stroke="none" font-family="Arial" font-size="24px" font-style="normal" font-weight="normal" text-decoration="none" x="200" y="150"></text><text fill="#eeeeee" stroke="none" font-family="Arial" font-size="24px" font-style="normal" font-weight="normal" text-decoration="none" x="200" y="180"></text><text fill="#eeeeee" stroke="none" font-family="Arial" font-size="24px" font-style="normal" font-weight="normal" text-decoration="none" x="200" y="210"></text><text fill="#eeeeee" stroke="none" font-family="Arial" font-size="24px" font-style="normal" font-weight="normal" text-decoration="none" x="200" y="240"></text><text fill="#eeeeee" stroke="none" font-family="Arial" font-size="24px" font-style="normal" font-weight="normal" text-decoration="none" x="200" y="270"></text><text fill="#eeeeee" stroke="none" font-family="Arial" font-size="24px" font-style="normal" font-weight="normal" text-decoration="none" x="200" y="300"></text><text fill="#eeeeee" stroke="none" font-family="Arial" font-size="24px" font-style="normal" font-weight="normal" text-decoration="none" x="200" y="330"></text><text fill="#eeeeee" stroke="none" font-family="Arial" font-size="24px" font-style="normal" font-weight="normal" text-decoration="none" x="200" y="360"></text><text fill="#eeeeee" stroke="none" font-family="Arial" font-size="24px" font-style="normal" font-weight="normal" text-decoration="none" x="200" y="390"></text><text fill="#eeeeee" stroke="none" font-family="Arial" font-size="24px" font-style="normal" font-weight="normal" text-decoration="none" x="200" y="420"></text><text fill="#eeeeee" stroke="none" font-family="Arial" font-size="24px" font-style="normal" font-weight="normal" text-decoration="none" x="200" y="450"></text><text fill="#eeeeee" stroke="none" font-family="Arial" font-size="24px" font-style="normal" font-weight="normal" text-decoration="none" x="200" y="480"></text><text fill="#eeeeee" stroke="none" font-family="Arial" font-size="24px" font-style="normal" font-weight="normal" text-decoration="none" x="200" y="510"></text><text fill="#eeeeee" stroke="none" font-family="Arial" font-size="24px" font-style="normal" font-weight="normal" text-decoration="none" x="400" y="0"></text><text fill="#eeeeee" stroke="none" font-family="Arial" font-size="24px" font-style="normal" font-weight="normal" text-decoration="none" x="400" y="30"></text><text fill="#eeeeee" stroke="none" font-family="Arial" font-size="24px" font-style="normal" font-weight="normal" text-decoration="none" x="400" y="60"></text><text fill="#eeeeee" stroke="none" font-family="Arial" font-size="24px" font-style="normal" font-weight="normal" text-decoration="none" x="400" y="90"></text><text fill="#eeeeee" stroke="none" font-family="Arial" font-size="24px" font-style="normal" font-weight="normal" text-decoration="none" x="400" y="120"></text><text fill="#eeeeee" stroke="none" font-family="Arial" font-size="24px" font-style="normal" font-weight="normal" text-decoration="none" x="400" y="150"></text><text fill="#eeeeee" stroke="none" font-family="Arial" font-size="24px" font-style="normal" font-weight="normal" text-decoration="none" x="400" y="180"></text><text fill="#eeeeee" stroke="none" font-family="Arial" font-size="24px" font-style="normal" font-weight="normal" text-decoration="none" x="400" y="210"></text><text fill="#eeeeee" stroke="none" font-family="Arial" font-size="24px" font-style="normal" font-weight="normal" text-decoration="none" x="400" y="240"></text><text fill="#eeeeee" stroke="none" font-family="Arial" font-size="24px" font-style="normal" font-weight="normal" text-decoration="none" x="400" y="270"></text><text fill="#eeeeee" stroke="none" font-family="Arial" font-size="24px" font-style="normal" font-weight="normal" text-decoration="none" x="400" y="300"></text><text fill="#eeeeee" stroke="none" font-family="Arial" font-size="24px" font-style="normal" font-weight="normal" text-decoration="none" x="400" y="330"></text><text fill="#eeeeee" stroke="none" font-family="Arial" font-size="24px" font-style="normal" font-weight="normal" text-decoration="none" x="400" y="360"></text><text fill="#eeeeee" stroke="none" font-family="Arial" font-size="24px" font-style="normal" font-weight="normal" text-decoration="none" x="400" y="390"></text><text fill="#eeeeee" stroke="none" font-family="Arial" font-size="24px" font-style="normal" font-weight="normal" text-decoration="none" x="400" y="420"></text><text fill="#eeeeee" stroke="none" font-family="Arial" font-size="24px" font-style="normal" font-weight="normal" text-decoration="none" x="400" y="450"></text><text fill="#eeeeee" stroke="none" font-family="Arial" font-size="24px" font-style="normal" font-weight="normal" text-decoration="none" x="400" y="480"></text><text fill="#eeeeee" stroke="none" font-family="Arial" font-size="24px" font-style="normal" font-weight="normal" text-decoration="none" x="400" y="510"></text><text fill="#eeeeee" stroke="none" font-family="Arial" font-size="24px" font-style="normal" font-weight="normal" text-decoration="none" x="600" y="0"></text><text fill="#eeeeee" stroke="none" font-family="Arial" font-size="24px" font-style="normal" font-weight="normal" text-decoration="none" x="600" y="30"></text><text fill="#eeeeee" stroke="none" font-family="Arial" font-size="24px" font-style="normal" font-weight="normal" text-decoration="none" x="600" y="60"></text><text fill="#eeeeee" stroke="none" font-family="Arial" font-size="24px" font-style="normal" font-weight="normal" text-decoration="none" x="600" y="90"></text><text fill="#eeeeee" stroke="none" font-family="Arial" font-size="24px" font-style="normal" font-weight="normal" text-decoration="none" x="600" y="120"></text><text fill="#eeeeee" stroke="none" font-family="Arial" font-size="24px" font-style="normal" font-weight="normal" text-decoration="none" x="600" y="150"></text><text fill="#eeeeee" stroke="none" font-family="Arial" font-size="24px" font-style="normal" font-weight="normal" text-decoration="none" x="600" y="180"></text><text fill="#eeeeee" stroke="none" font-family="Arial" font-size="24px" font-style="normal" font-weight="normal" text-decoration="none" x="600" y="210"></text><text fill="#eeeeee" stroke="none" font-family="Arial" font-size="24px" font-style="normal" font-weight="normal" text-decoration="none" x="600" y="240"></text><text fill="#eeeeee" stroke="none" font-family="Arial" font-size="24px" font-style="normal" font-weight="normal" text-decoration="none" x="600" y="270"></text><text fill="#eeeeee" stroke="none" font-family="Arial" font-size="24px" font-style="normal" font-weight="normal" text-decoration="none" x="600" y="300"></text><text fill="#eeeeee" stroke="none" font-family="Arial" font-size="24px" font-style="normal" font-weight="normal" text-decoration="none" x="600" y="330"></text><text fill="#eeeeee" stroke="none" font-family="Arial" font-size="24px" font-style="normal" font-weight="normal" text-decoration="none" x="600" y="360"></text><text fill="#eeeeee" stroke="none" font-family="Arial" font-size="24px" font-style="normal" font-weight="normal" text-decoration="none" x="600" y="390"></text><text fill="#eeeeee" stroke="none" font-family="Arial" font-size="24px" font-style="normal" font-weight="normal" text-decoration="none" x="600" y="420"></text><text fill="#eeeeee" stroke="none" font-family="Arial" font-size="24px" font-style="normal" font-weight="normal" text-decoration="none" x="600" y="450"></text><text fill="#eeeeee" stroke="none" font-family="Arial" font-size="24px" font-style="normal" font-weight="normal" text-decoration="none" x="600" y="480"></text><text fill="#eeeeee" stroke="none" font-family="Arial" font-size="24px" font-style="normal" font-weight="normal" text-decoration="none" x="600" y="510"></text><text fill="#eeeeee" stroke="none" font-family="Arial" font-size="24px" font-style="normal" font-weight="normal" text-decoration="none" x="800" y="0"></text><text fill="#eeeeee" stroke="none" font-family="Arial" font-size="24px" font-style="normal" font-weight="normal" text-decoration="none" x="800" y="30"></text><text fill="#eeeeee" stroke="none" font-family="Arial" font-size="24px" font-style="normal" font-weight="normal" text-decoration="none" x="800" y="60"></text><text fill="#eeeeee" stroke="none" font-family="Arial" font-size="24px" font-style="normal" font-weight="normal" text-decoration="none" x="800" y="90"></text><text fill="#eeeeee" stroke="none" font-family="Arial" font-size="24px" font-style="normal" font-weight="normal" text-decoration="none" x="800" y="120"></text><text fill="#eeeeee" stroke="none" font-family="Arial" font-size="24px" font-style="normal" font-weight="normal" text-decoration="none" x="800" y="150"></text><text fill="#eeeeee" stroke="none" font-family="Arial" font-size="24px" font-style="normal" font-weight="normal" text-decoration="none" x="800" y="180"></text><text fill="#eeeeee" stroke="none" font-family="Arial" font-size="24px" font-style="normal" font-weight="normal" text-decoration="none" x="800" y="210"></text><text fill="#eeeeee" stroke="none" font-family="Arial" font-size="24px" font-style="normal" font-weight="normal" text-decoration="none" x="800" y="240"></text><text fill="#eeeeee" stroke="none" font-family="Arial" font-size="24px" font-style="normal" font-weight="normal" text-decoration="none" x="800" y="270"></text><text fill="#eeeeee" stroke="none" font-family="Arial" font-size="24px" font-style="normal" font-weight="normal" text-decoration="none" x="800" y="300"></text><text fill="#eeeeee" stroke="none" font-family="Arial" font-size="24px" font-style="normal" font-weight="normal" text-decoration="none" x="800" y="330"></text><text fill="#eeeeee" stroke="none" font-family="Arial" font-size="24px" font-style="normal" font-weight="normal" text-decoration="none" x="800" y="360"></text><text fill="#eeeeee" stroke="none" font-family="Arial" font-size="24px" font-style="normal" font-weight="normal" text-decoration="none" x="800" y="390"></text><text fill="#eeeeee" stroke="none" font-family="Arial" font-size="24px" font-style="normal" font-weight="normal" text-decoration="none" x="800" y="420"></text><text fill="#eeeeee" stroke="none" font-family="Arial" font-size="24px" font-style="normal" font-weight="normal" text-decoration="none" x="800" y="450"></text><text fill="#eeeeee" stroke="none" font-family="Arial" font-size="24px" font-style="normal" font-weight="normal" text-decoration="none" x="800" y="480"></text><text fill="#eeeeee" stroke="none" font-family="Arial" font-size="24px" font-style="normal" font-weight="normal" text-decoration="none" x="800" y="510"></text><text fill="#eeeeee" stroke="none" font-family="Arial" font-size="24px" font-style="normal" font-weight="normal" text-decoration="none" x="1000" y="0"></text><text fill="#eeeeee" stroke="none" font-family="Arial" font-size="24px" font-style="normal" font-weight="normal" text-decoration="none" x="1000" y="30"></text><text fill="#eeeeee" stroke="none" font-family="Arial" font-size="24px" font-style="normal" font-weight="normal" text-decoration="none" x="1000" y="60"></text><text fill="#eeeeee" stroke="none" font-family="Arial" font-size="24px" font-style="normal" font-weight="normal" text-decoration="none" x="1000" y="90"></text><text fill="#eeeeee" stroke="none" font-family="Arial" font-size="24px" font-style="normal" font-weight="normal" text-decoration="none" x="1000" y="120"></text><text fill="#eeeeee" stroke="none" font-family="Arial" font-size="24px" font-style="normal" font-weight="normal" text-decoration="none" x="1000" y="150"></text><text fill="#eeeeee" stroke="none" font-family="Arial" font-size="24px" font-style="normal" font-weight="normal" text-decoration="none" x="1000" y="180"></text><text fill="#eeeeee" stroke="none" font-family="Arial" font-size="24px" font-style="normal" font-weight="normal" text-decoration="none" x="1000" y="210"></text><text fill="#eeeeee" stroke="none" font-family="Arial" font-size="24px" font-style="normal" font-weight="normal" text-decoration="none" x="1000" y="240"></text><text fill="#eeeeee" stroke="none" font-family="Arial" font-size="24px" font-style="normal" font-weight="normal" text-decoration="none" x="1000" y="270"></text><text fill="#eeeeee" stroke="none" font-family="Arial" font-size="24px" font-style="normal" font-weight="normal" text-decoration="none" x="1000" y="300"></text><text fill="#eeeeee" stroke="none" font-family="Arial" font-size="24px" font-style="normal" font-weight="normal" text-decoration="none" x="1000" y="330"></text><text fill="#eeeeee" stroke="none" font-family="Arial" font-size="24px" font-style="normal" font-weight="normal" text-decoration="none" x="1000" y="360"></text><text fill="#eeeeee" stroke="none" font-family="Arial" font-size="24px" font-style="normal" font-weight="normal" text-decoration="none" x="1000" y="390"></text><text fill="#eeeeee" stroke="none" font-family="Arial" font-size="24px" font-style="normal" font-weight="normal" text-decoration="none" x="1000" y="420"></text><text fill="#eeeeee" stroke="none" font-family="Arial" font-size="24px" font-style="normal" font-weight="normal" text-decoration="none" x="1000" y="450"></text><text fill="#eeeeee" stroke="none" font-family="Arial" font-size="24px" font-style="normal" font-weight="normal" text-decoration="none" x="1000" y="480"></text><text fill="#eeeeee" stroke="none" font-family="Arial" font-size="24px" font-style="normal" font-weight="normal" text-decoration="none" x="1000" y="510"></text><g transform="translate(-6,-374) scale(1,1)"><rect fill="#C0C0C0" stroke="none" x="711" y="391" width="240" height="176" opacity="0.2"/></g><g transform="translate(-6,-374) scale(1,1)"><rect fill="#ffffff" stroke="none" x="704" y="384" width="240" height="176"/></g><g transform="translate(-6,-374) scale(1,1)"><path fill="none" stroke="#000000" d="M 704 384 L 944 384 L 944 560 L 704 560 L 704 384 Z Z" stroke-miterlimit="10"/></g><g transform="translate(-6,-374) scale(1,1)"><path fill="none" stroke="#000000" d="M 704 409 L 944 409" stroke-miterlimit="10"/></g><g transform="translate(-6,-374) scale(1,1)"><path fill="none" stroke="#000000" d="M 704 477 L 944 477" stroke-miterlimit="10"/></g><g transform="translate(-6,-374) scale(1,1)"><g><path fill="none" stroke="none"/><text fill="#000000" stroke="none" font-family="Arial" font-size="13px" font-style="italic" font-weight="bold" text-decoration="none" x="811.36181640625" y="403.5">User</text></g></g><g transform="translate(-6,-374) scale(1,1)"><g><path fill="none" stroke="none"/><text fill="#000000" stroke="none" font-family="Arial" font-size="13px" font-style="normal" font-weight="normal" text-decoration="none" x="709" y="426.5">-id: String</text></g></g><g transform="translate(-6,-374) scale(1,1)"><g><path fill="none" stroke="none"/><text fill="#000000" stroke="none" font-family="Arial" font-size="13px" font-style="normal" font-weight="normal" text-decoration="none" x="709" y="441.5">-email: String</text></g></g><g transform="translate(-6,-374) scale(1,1)"><g><path fill="none" stroke="none"/><text fill="#000000" stroke="none" font-family="Arial" font-size="13px" font-style="normal" font-weight="normal" text-decoration="none" x="709" y="456.5">-fullName: String</text></g></g><g transform="translate(-6,-374) scale(1,1)"><g><path fill="none" stroke="none"/><text fill="#000000" stroke="none" font-family="Arial" font-size="13px" font-style="normal" font-weight="normal" text-decoration="none" x="709" y="471.5">-passwordHash: String</text></g></g><g transform="translate(-6,-374) scale(1,1)"><g><path fill="none" stroke="none"/><text fill="#000000" stroke="none" font-family="Arial" font-size="13px" font-style="normal" font-weight="normal" text-decoration="none" x="709" y="494.5">+setId(String)</text></g></g><g transform="translate(-6,-374) scale(1,1)"><g><path fill="none" stroke="none"/><text fill="#000000" stroke="none" font-family="Arial" font-size="13px" font-style="normal" font-weight="normal" text-decoration="none" x="709" y="509.5">+setEmail(String)</text></g></g><g transform="translate(-6,-374) scale(1,1)"><g><path fill="none" stroke="none"/><text fill="#000000" stroke="none" font-family="Arial" font-size="13px" font-style="normal" font-weight="normal" text-decoration="none" x="709" y="524.5">+setName(String)</text></g></g><g transform="translate(-6,-374) scale(1,1)"><g><path fill="none" stroke="none"/><text fill="#000000" stroke="none" font-family="Arial" font-size="13px" font-style="normal" font-weight="normal" text-decoration="none" x="709" y="539.5">+setPassword(String)</text></g></g><g transform="translate(-6,-374) scale(1,1)"><g><path fill="none" stroke="none"/><text fill="#000000" stroke="none" font-family="Arial" font-size="13px" font-style="normal" font-weight="normal" text-decoration="none" x="709" y="554.5">+watchEvent(RecEvent)</text></g></g><g transform="translate(-6,-374) scale(1,1)"><rect fill="#C0C0C0" stroke="none" x="647" y="615" width="180.62158203125" height="85" opacity="0.2"/></g><g transform="translate(-6,-374) scale(1,1)"><rect fill="#ffffff" stroke="none" x="640" y="608" width="180.62158203125" height="85"/></g><g transform="translate(-6,-374) scale(1,1)"><path fill="none" stroke="#000000" d="M 640 608 L 820.62158203125 608 L 820.62158203125 693 L 640 693 L 640 608 Z Z" stroke-miterlimit="10"/></g><g transform="translate(-6,-374) scale(1,1)"><path fill="none" stroke="#000000" d="M 640 633 L 820.62158203125 633" stroke-miterlimit="10"/></g><g transform="translate(-6,-374) scale(1,1)"><path fill="none" stroke="#000000" d="M 640 656 L 820.62158203125 656" stroke-miterlimit="10"/></g><g transform="translate(-6,-374) scale(1,1)"><g><path fill="none" stroke="none"/><text fill="#000000" stroke="none" font-family="Arial" font-size="13px" font-style="normal" font-weight="bold" text-decoration="none" x="700.32763671875" y="627.5">Consumer</text></g></g><g transform="translate(-6,-374) scale(1,1)"><g><path fill="none" stroke="none"/><text fill="#000000" stroke="none" font-family="Arial" font-size="13px" font-style="normal" font-weight="normal" text-decoration="none" x="645" y="650.5">+watchedEvents: RecEvent[*]</text></g></g><g transform="translate(-6,-374) scale(1,1)"><g><path fill="none" stroke="none"/><text fill="#000000" stroke="none" font-family="Arial" font-size="13px" font-style="normal" font-weight="normal" text-decoration="none" x="645" y="673.5">+importCalendar()</text></g></g><g transform="translate(-6,-374) scale(1,1)"><path fill="none" stroke="#000000" d="M 753 607 L 777 561" stroke-miterlimit="10"/></g><g transform="translate(-6,-374) scale(1,1)"><path fill="#FFFFFF" stroke="none" d="M 775.0623734518342 582.9145066875767 L 777 561 L 760.1339948432415 575.1257874135283"/></g><g transform="translate(-6,-374) scale(1,1)"><path fill="none" stroke="#000000" d="M 775.0623734518342 582.9145066875767 L 777 561 L 760.1339948432415 575.1257874135283 L 775.0623734518342 582.9145066875767" stroke-miterlimit="10"/></g><g transform="translate(-6,-374) scale(1,1)"><rect fill="#C0C0C0" stroke="none" x="911" y="631" width="175.5625" height="100" opacity="0.2"/></g><g transform="translate(-6,-374) scale(1,1)"><rect fill="#ffffff" stroke="none" x="904" y="624" width="175.5625" height="100"/></g><g transform="translate(-6,-374) scale(1,1)"><path fill="none" stroke="#000000" d="M 904 624 L 1079.5625 624 L 1079.5625 724 L 904 724 L 904 624 Z Z" stroke-miterlimit="10"/></g><g transform="translate(-6,-374) scale(1,1)"><path fill="none" stroke="#000000" d="M 904 649 L 1079.5625 649" stroke-miterlimit="10"/></g><g transform="translate(-6,-374) scale(1,1)"><path fill="none" stroke="#000000" d="M 904 672 L 1079.5625 672" stroke-miterlimit="10"/></g><g transform="translate(-6,-374) scale(1,1)"><g><path fill="none" stroke="none"/><text fill="#000000" stroke="none" font-family="Arial" font-size="13px" font-style="italic" font-weight="bold" text-decoration="none" x="948.829833984375" y="643.5">RecEventMaster</text></g></g><g transform="translate(-6,-374) scale(1,1)"><g><path fill="none" stroke="none"/><text fill="#000000" stroke="none" font-family="Arial" font-size="13px" font-style="normal" font-weight="normal" text-decoration="none" x="909" y="666.5">+createdEvents: RecEvent[*]</text></g></g><g transform="translate(-6,-374) scale(1,1)"><path fill="none" stroke="#000000" d="M 949 623 L 898 561" stroke-miterlimit="10"/></g><g transform="translate(-6,-374) scale(1,1)"><path fill="#FFFFFF" stroke="none" d="M 917.4140300708938 571.3486924974334 L 898 561 L 904.4101616719391 582.045422954638"/></g><g transform="translate(-6,-374) scale(1,1)"><path fill="none" stroke="#000000" d="M 917.4140300708938 571.3486924974334 L 898 561 L 904.4101616719391 582.045422954638 L 917.4140300708938 571.3486924974334" stroke-miterlimit="10"/></g><g transform="translate(-6,-374) scale(1,1)"><rect fill="#C0C0C0" stroke="none" x="823" y="807" width="130.7607421875" height="72" opacity="0.2"/></g><g transform="translate(-6,-374) scale(1,1)"><rect fill="#ffffff" stroke="none" x="816" y="800" width="130.7607421875" height="72"/></g><g transform="translate(-6,-374) scale(1,1)"><path fill="none" stroke="#000000" d="M 816 800 L 946.7607421875 800 L 946.7607421875 872 L 816 872 L 816 800 Z Z" stroke-miterlimit="10"/></g><g transform="translate(-6,-374) scale(1,1)"><path fill="none" stroke="#000000" d="M 816 825 L 946.7607421875 825" stroke-miterlimit="10"/></g><g transform="translate(-6,-374) scale(1,1)"><path fill="none" stroke="#000000" d="M 816 848 L 946.7607421875 848" stroke-miterlimit="10"/></g><g transform="translate(-6,-374) scale(1,1)"><g><path fill="none" stroke="none"/><text fill="#000000" stroke="none" font-family="Arial" font-size="13px" font-style="normal" font-weight="bold" text-decoration="none" x="852.84130859375" y="819.5">Organizer</text></g></g><g transform="translate(-6,-374) scale(1,1)"><g><path fill="none" stroke="none"/><text fill="#000000" stroke="none" font-family="Arial" font-size="13px" font-style="normal" font-weight="normal" text-decoration="none" x="821" y="842.5">+rating: float</text></g></g><g transform="translate(-6,-374) scale(1,1)"><path fill="none" stroke="#000000" d="M 906 799 L 956 725" stroke-miterlimit="10"/></g><g transform="translate(-6,-374) scale(1,1)"><path fill="#FFFFFF" stroke="none" d="M 951.5966222773924 746.5548199860737 L 956 725 L 937.6447823728103 737.1279011316263"/></g><g transform="translate(-6,-374) scale(1,1)"><path fill="none" stroke="#000000" d="M 951.5966222773924 746.5548199860737 L 956 725 L 937.6447823728103 737.1279011316263 L 951.5966222773924 746.5548199860737" stroke-miterlimit="10"/></g><g transform="translate(-6,-374) scale(1,1)"><rect fill="#C0C0C0" stroke="none" x="999" y="807" width="128.58984375" height="56" opacity="0.2"/></g><g transform="translate(-6,-374) scale(1,1)"><rect fill="#ffffff" stroke="none" x="992" y="800" width="128.58984375" height="56"/></g><g transform="translate(-6,-374) scale(1,1)"><path fill="none" stroke="#000000" d="M 992 800 L 1120.58984375 800 L 1120.58984375 856 L 992 856 L 992 800 Z Z" stroke-miterlimit="10"/></g><g transform="translate(-6,-374) scale(1,1)"><path fill="none" stroke="#000000" d="M 992 825 L 1120.58984375 825" stroke-miterlimit="10"/></g><g transform="translate(-6,-374) scale(1,1)"><path fill="none" stroke="#000000" d="M 992 835 L 1120.58984375 835" stroke-miterlimit="10"/></g><g transform="translate(-6,-374) scale(1,1)"><g><path fill="none" stroke="none"/><text fill="#000000" stroke="none" font-family="Arial" font-size="13px" font-style="normal" font-weight="bold" text-decoration="none" x="1037.870849609375" y="819.5">Admin</text></g></g><g transform="translate(-6,-374) scale(1,1)"><path fill="none" stroke="#000000" d="M 1044 799 L 1013 725" stroke-miterlimit="10"/></g><g transform="translate(-6,-374) scale(1,1)"><path fill="#FFFFFF" stroke="none" d="M 1028.6185984165616 740.4938498605796 L 1013 725 L 1013.088210549878 746.9998231560822"/></g><g transform="translate(-6,-374) scale(1,1)"><path fill="none" stroke="#000000" d="M 1028.6185984165616 740.4938498605796 L 1013 725 L 1013.088210549878 746.9998231560822 L 1028.6185984165616 740.4938498605796" stroke-miterlimit="10"/></g><g transform="translate(-6,-374) scale(1,1)"><rect fill="#C0C0C0" stroke="none" x="559" y="775" width="132.4111328125" height="130" opacity="0.2"/></g><g transform="translate(-6,-374) scale(1,1)"><rect fill="#ffffff" stroke="none" x="552" y="768" width="132.4111328125" height="130"/></g><g transform="translate(-6,-374) scale(1,1)"><path fill="none" stroke="#000000" d="M 552 768 L 684.4111328125 768 L 684.4111328125 898 L 552 898 L 552 768 Z Z" stroke-miterlimit="10"/></g><g transform="translate(-6,-374) scale(1,1)"><path fill="none" stroke="#000000" d="M 552 793 L 684.4111328125 793" stroke-miterlimit="10"/></g><g transform="translate(-6,-374) scale(1,1)"><path fill="none" stroke="#000000" d="M 552 846 L 684.4111328125 846" stroke-miterlimit="10"/></g><g transform="translate(-6,-374) scale(1,1)"><g><path fill="none" stroke="none"/><text fill="#000000" stroke="none" font-family="Arial" font-size="13px" font-style="normal" font-weight="bold" text-decoration="none" x="590.025146484375" y="787.5">RecEvent</text></g></g><g transform="translate(-6,-374) scale(1,1)"><g><path fill="none" stroke="none"/><text fill="#000000" stroke="none" font-family="Arial" font-size="13px" font-style="normal" font-weight="normal" text-decoration="none" x="557" y="810.5">+location: String</text></g></g><g transform="translate(-6,-374) scale(1,1)"><g><path fill="none" stroke="none"/><text fill="#000000" stroke="none" font-family="Arial" font-size="13px" font-style="normal" font-weight="normal" text-decoration="none" x="557" y="825.5">+duration: float</text></g></g><g transform="translate(-6,-374) scale(1,1)"><g><path fill="none" stroke="none"/><text fill="#000000" stroke="none" font-family="Arial" font-size="13px" font-style="normal" font-weight="normal" text-decoration="none" x="557" y="840.5">+startTime: int</text></g></g><g transform="translate(-6,-374) scale(1,1)"><g><path fill="none" stroke="none"/><text fill="#000000" stroke="none" font-family="Arial" font-size="13px" font-style="normal" font-weight="normal" text-decoration="none" x="557" y="863.5">-setLocation(String)</text></g></g><g transform="translate(-6,-374) scale(1,1)"><g><path fill="none" stroke="none"/><text fill="#000000" stroke="none" font-family="Arial" font-size="13px" font-style="normal" font-weight="normal" text-decoration="none" x="557" y="878.5">-setDuration(float)</text></g></g><g transform="translate(-6,-374) scale(1,1)"><g><path fill="none" stroke="none"/><text fill="#000000" stroke="none" font-family="Arial" font-size="13px" font-style="normal" font-weight="normal" text-decoration="none" x="557" y="893.5">-setStartTime(int)</text></g></g><g transform="translate(-6,-374) scale(1,1)"><path fill="none" stroke="#000000" d="M 685 804 L 903 712" stroke-miterlimit="10"/></g><g transform="translate(-6,-374) scale(1,1)"><path fill="#FFFFFF" stroke="none" d="M 895.2736699759012 719.8296758782666 L 903 712 L 892.0002427382594 712.0730765542895 L 882.7310291798129 720.5538775938404"/></g><g transform="translate(-6,-374) scale(1,1)"><path fill="none" stroke="#000000" d="M 895.2736699759012 719.8296758782666 L 903 712 L 892.0002427382594 712.0730765542895 L 882.7310291798129 720.5538775938404 L 895.2736699759012 719.8296758782666" stroke-miterlimit="10"/></g><g transform="translate(-6,-374) scale(1,1)"><g><path fill="none" stroke="none"/><text fill="#000000" stroke="none" font-family="Arial" font-size="13px" font-style="normal" font-weight="normal" text-decoration="none" x="706.5" y="813.5">*</text></g></g><g transform="translate(-6,-374) scale(1,1)"><g><path fill="none" stroke="none"/><text fill="#000000" stroke="none" font-family="Arial" font-size="13px" font-style="normal" font-weight="normal" text-decoration="none" x="883.5" y="737.5">1</text></g></g><g transform="translate(-6,-374) scale(1,1)"><path fill="none" stroke="#000000" d="M 658 767 L 703 694" stroke-miterlimit="10"/></g><g transform="translate(-6,-374) scale(1,1)"><path fill="#FFFFFF" stroke="none" d="M 701.250542165062 704.8599906668364 L 703 694 L 694.0837734573728 700.4421195456581 L 691.4555464189431 712.7276691426034"/></g><g transform="translate(-6,-374) scale(1,1)"><path fill="none" stroke="#000000" d="M 701.250542165062 704.8599906668364 L 703 694 L 694.0837734573728 700.4421195456581 L 691.4555464189431 712.7276691426034 L 701.250542165062 704.8599906668364" stroke-miterlimit="10"/></g><g transform="translate(-6,-374) scale(1,1)"><g><path fill="none" stroke="none"/><text fill="#000000" stroke="none" font-family="Arial" font-size="13px" font-style="normal" font-weight="normal" text-decoration="none" x="677.5" y="761.5">*</text></g></g><g transform="translate(-6,-374) scale(1,1)"><g><path fill="none" stroke="none"/><text fill="#000000" stroke="none" font-family="Arial" font-size="13px" font-style="normal" font-weight="normal" text-decoration="none" x="699.5" y="724.5">*</text></g></g><g transform="translate(-6,-374) scale(1,1)"><rect fill="#C0C0C0" stroke="none" x="23" y="439" width="141.818359375" height="72" opacity="0.2"/></g><g transform="translate(-6,-374) scale(1,1)"><rect fill="#ffffff" stroke="none" x="16" y="432" width="141.818359375" height="72"/></g><g transform="translate(-6,-374) scale(1,1)"><path fill="none" stroke="#000000" d="M 16 432 L 157.818359375 432 L 157.818359375 504 L 16 504 L 16 432 Z Z" stroke-miterlimit="10"/></g><g transform="translate(-6,-374) scale(1,1)"><path fill="none" stroke="#000000" d="M 16 457 L 157.818359375 457" stroke-miterlimit="10"/></g><g transform="translate(-6,-374) scale(1,1)"><path fill="none" stroke="#000000" d="M 16 467 L 157.818359375 467" stroke-miterlimit="10"/></g><g transform="translate(-6,-374) scale(1,1)"><g><path fill="none" stroke="none"/><text fill="#000000" stroke="none" font-family="Arial" font-size="13px" font-style="normal" font-weight="bold" text-decoration="none" x="72.93798828125" y="451.5">View</text></g></g><g transform="translate(-6,-374) scale(1,1)"><g><path fill="none" stroke="none"/><text fill="#000000" stroke="none" font-family="Arial" font-size="13px" font-style="normal" font-weight="normal" text-decoration="none" x="21" y="484.5">+update()</text></g></g><g transform="translate(-6,-374) scale(1,1)"><rect fill="#C0C0C0" stroke="none" x="143" y="615" width="237.68701171875" height="190" opacity="0.2"/></g><g transform="translate(-6,-374) scale(1,1)"><rect fill="#ffffff" stroke="none" x="136" y="608" width="237.68701171875" height="190"/></g><g transform="translate(-6,-374) scale(1,1)"><path fill="none" stroke="#000000" d="M 136 608 L 373.68701171875 608 L 373.68701171875 798 L 136 798 L 136 608 Z Z" stroke-miterlimit="10"/></g><g transform="translate(-6,-374) scale(1,1)"><path fill="none" stroke="#000000" d="M 136 633 L 373.68701171875 633" stroke-miterlimit="10"/></g><g transform="translate(-6,-374) scale(1,1)"><path fill="none" stroke="#000000" d="M 136 671 L 373.68701171875 671" stroke-miterlimit="10"/></g><g transform="translate(-6,-374) scale(1,1)"><g><path fill="none" stroke="none"/><text fill="#000000" stroke="none" font-family="Arial" font-size="13px" font-style="normal" font-weight="bold" text-decoration="none" x="237.139892578125" y="627.5">Model</text></g></g><g transform="translate(-6,-374) scale(1,1)"><g><path fill="none" stroke="none"/><text fill="#000000" stroke="none" font-family="Arial" font-size="13px" font-style="normal" font-weight="normal" text-decoration="none" x="141" y="650.5">+Events: RecEvent[*]</text></g></g><g transform="translate(-6,-374) scale(1,1)"><g><path fill="none" stroke="none"/><text fill="#000000" stroke="none" font-family="Arial" font-size="13px" font-style="normal" font-weight="normal" text-decoration="none" x="141" y="665.5">+Users: User[*]</text></g></g><g transform="translate(-6,-374) scale(1,1)"><g><path fill="none" stroke="none"/><text fill="#000000" stroke="none" font-family="Arial" font-size="13px" font-style="normal" font-weight="normal" text-decoration="none" x="141" y="688.5">+createRecEvent(RecEvent)</text></g></g><g transform="translate(-6,-374) scale(1,1)"><g><path fill="none" stroke="none"/><text fill="#000000" stroke="none" font-family="Arial" font-size="13px" font-style="normal" font-weight="normal" text-decoration="none" x="141" y="703.5">+editRecEvent(RecEvent)</text></g></g><g transform="translate(-6,-374) scale(1,1)"><g><path fill="none" stroke="none"/><text fill="#000000" stroke="none" font-family="Arial" font-size="13px" font-style="normal" font-weight="normal" text-decoration="none" x="141" y="718.5">+deleteRecEvent(RecEvent)</text></g></g><g transform="translate(-6,-374) scale(1,1)"><g><path fill="none" stroke="none"/><text fill="#000000" stroke="none" font-family="Arial" font-size="13px" font-style="normal" font-weight="normal" text-decoration="none" x="141" y="733.5">+approveOrganizer(Organizer)</text></g></g><g transform="translate(-6,-374) scale(1,1)"><g><path fill="none" stroke="none"/><text fill="#000000" stroke="none" font-family="Arial" font-size="13px" font-style="normal" font-weight="normal" text-decoration="none" x="141" y="748.5">+rejectOrganizer(Organizer)</text></g></g><g transform="translate(-6,-374) scale(1,1)"><g><path fill="none" stroke="none"/><text fill="#000000" stroke="none" font-family="Arial" font-size="13px" font-style="normal" font-weight="normal" text-decoration="none" x="141" y="763.5">+approveRecEvent(RecEvent)</text></g></g><g transform="translate(-6,-374) scale(1,1)"><g><path fill="none" stroke="none"/><text fill="#000000" stroke="none" font-family="Arial" font-size="13px" font-style="normal" font-weight="normal" text-decoration="none" x="141" y="778.5">+rejectRecEvent(RecEvent)</text></g></g><g transform="translate(-6,-374) scale(1,1)"><g><path fill="none" stroke="none"/><text fill="#000000" stroke="none" font-family="Arial" font-size="13px" font-style="normal" font-weight="normal" text-decoration="none" x="141" y="793.5">+updateView()</text></g></g><g transform="translate(-6,-374) scale(1,1)"><rect fill="#C0C0C0" stroke="none" x="303" y="439" width="259.376953125" height="72" opacity="0.2"/></g><g transform="translate(-6,-374) scale(1,1)"><rect fill="#ffffff" stroke="none" x="296" y="432" width="259.376953125" height="72"/></g><g transform="translate(-6,-374) scale(1,1)"><path fill="none" stroke="#000000" d="M 296 432 L 555.376953125 432 L 555.376953125 504 L 296 504 L 296 432 Z Z" stroke-miterlimit="10"/></g><g transform="translate(-6,-374) scale(1,1)"><path fill="none" stroke="#000000" d="M 296 457 L 555.376953125 457" stroke-miterlimit="10"/></g><g transform="translate(-6,-374) scale(1,1)"><path fill="none" stroke="#000000" d="M 296 467 L 555.376953125 467" stroke-miterlimit="10"/></g><g transform="translate(-6,-374) scale(1,1)"><g><path fill="none" stroke="none"/><text fill="#000000" stroke="none" font-family="Arial" font-size="13px" font-style="normal" font-weight="bold" text-decoration="none" x="397.51123046875" y="451.5">Controller</text></g></g><g transform="translate(-6,-374) scale(1,1)"><g><path fill="none" stroke="none"/><text fill="#000000" stroke="none" font-family="Arial" font-size="13px" font-style="normal" font-weight="normal" text-decoration="none" x="301" y="484.5">+updateRecEvents(RecEvent, User)</text></g></g><g transform="translate(-6,-374) scale(1,1)"><g><path fill="none" stroke="none"/><text fill="#000000" stroke="none" font-family="Arial" font-size="13px" font-style="normal" font-weight="normal" text-decoration="none" x="301" y="499.5">+updateUserSettings(User)</text></g></g><g transform="translate(-6,-374) scale(1,1)"><path fill="none" stroke="#000000" d="M 112 505 L 185 607" stroke-miterlimit="10"/></g><g transform="translate(-6,-374) scale(1,1)"><path fill="none" stroke="#000000" d="M 175.66224709540964 601.1856753880769 L 185 607 L 182.5085599612304 596.2858632390091" stroke-miterlimit="10"/></g><g transform="translate(-6,-374) scale(1,1)"><g><path fill="none" stroke="none"/><text fill="#000000" stroke="none" font-family="Arial" font-size="13px" font-style="normal" font-weight="normal" text-decoration="none" x="98.5" y="553.5">+check Events/Users</text></g></g><g transform="translate(-6,-374) scale(1,1)"><path fill="none" stroke="#000000" d="M 398 505 L 324 607" stroke-miterlimit="10"/></g><g transform="translate(-6,-374) scale(1,1)"><path fill="none" stroke="#000000" d="M 326.56052767947443 596.3021638635355 L 324 607 L 333.37507896168876 601.2460540094557" stroke-miterlimit="10"/></g><g transform="translate(-6,-374) scale(1,1)"><g><path fill="none" stroke="none"/><text fill="#000000" stroke="none" font-family="Arial" font-size="13px" font-style="normal" font-weight="normal" text-decoration="none" x="308.5" y="570.5">+update Events/Users</text></g></g><g transform="translate(-6,-374) scale(1,1)"><path fill="none" stroke="#000000" d="M 159 468 L 295 468" stroke-miterlimit="10"/></g><g transform="translate(-6,-374) scale(1,1)"><path fill="none" stroke="#000000" d="M 284.83732514237585 472.209517756016 L 295 468 L 284.83732514237585 463.790482243984" stroke-miterlimit="10"/></g><g transform="translate(-6,-374) scale(1,1)"><path fill="none" stroke="#000000" d="M 583 767 L 445 505" stroke-miterlimit="10"/></g><g transform="translate(-6,-374) scale(1,1)"><path fill="none" stroke="#000000" d="M 453.4605203092494 512.0299072608946 L 445 505 L 446.0115961877456 515.9533863783279" stroke-miterlimit="10"/></g><g transform="translate(-6,-374) scale(1,1)"><g><path fill="none" stroke="none"/><text fill="#000000" stroke="none" font-family="Arial" font-size="13px" font-style="normal" font-weight="normal" text-decoration="none" x="467.5" y="648.5">+Event info</text></g></g><g transform="translate(-6,-374) scale(1,1)"><path fill="none" stroke="#000000" d="M 703 471 L 556 469" stroke-miterlimit="10"/></g><g transform="translate(-6,-374) scale(1,1)"><path fill="none" stroke="#000000" d="M 566.2190014420615 464.92912668741155 L 556 469 L 566.1044673413194 473.34738309195416" stroke-miterlimit="10"/></g><g transform="translate(-6,-374) scale(1,1)"><g><path fill="none" stroke="none"/><text fill="#000000" stroke="none" font-family="Arial" font-size="13px" font-style="normal" font-weight="normal" text-decoration="none" x="598.5" y="490.5">+User info</text></g></g></g></svg>