<svg version="1.1" xmlns="http://www.w3.org/2000/svg" xmlns:xlink="http://www.w3.org/1999/xlink" width="440.1162109375" height="371"><defs/><g><text fill="#eeeeee" stroke="none" font-family="Arial" font-size="24px" font-style="normal" font-weight="normal" text-decoration="none" x="0" y="0">UNREGISTERED</text><text fill="#eeeeee" stroke="none" font-family="Arial" font-size="24px" font-style="normal" font-weight="normal" text-decoration="none" x="0" y="30">UNREGISTERED</text><text fill="#eeeeee" stroke="none" font-family="Arial" font-size="24px" font-style="normal" font-weight="normal" text-decoration="none" x="0" y="60">UNREGISTERED</text><text fill="#eeeeee" stroke="none" font-family="Arial" font-size="24px" font-style="normal" font-weight="normal" text-decoration="none" x="0" y="90">UNREGISTERED</text><text fill="#eeeeee" stroke="none" font-family="Arial" font-size="24px" font-style="normal" font-weight="normal" text-decoration="none" x="0" y="120">UNREGISTERED</text><text fill="#eeeeee" stroke="none" font-family="Arial" font-size="24px" font-style="normal" font-weight="normal" text-decoration="none" x="0" y="150">UNREGISTERED</text><text fill="#eeeeee" stroke="none" font-family="Arial" font-size="24px" font-style="normal" font-weight="normal" text-decoration="none" x="0" y="180">UNREGISTERED</text><text fill="#eeeeee" stroke="none" font-family="Arial" font-size="24px" font-style="normal" font-weight="normal" text-decoration="none" x="0" y="210">UNREGISTERED</text><text fill="#eeeeee" stroke="none" font-family="Arial" font-size="24px" font-style="normal" font-weight="normal" text-decoration="none" x="0" y="240">UNREGISTERED</text><text fill="#eeeeee" stroke="none" font-family="Arial" font-size="24px" font-style="normal" font-weight="normal" text-decoration="none" x="0" y="270">UNREGISTERED</text><text fill="#eeeeee" stroke="none" font-family="Arial" font-size="24px" font-style="normal" font-weight="normal" text-decoration="none" x="0" y="300">UNREGISTERED</text><text fill="#eeeeee" stroke="none" font-family="Arial" font-size="24px" font-style="normal" font-weight="normal" text-decoration="none" x="0" y="330">UNREGISTERED</text><text fill="#eeeeee" stroke="none" font-family="Arial" font-size="24px" font-style="normal" font-weight="normal" text-decoration="none" x="0" y="360">UNREGISTERED</text><text fill="#eeeeee" stroke="none" font-family="Arial" font-size="24px" font-style="normal" font-weight="normal" text-decoration="none" x="200" y="0">UNREGISTERED</text><text fill="#eeeeee" stroke="none" font-family="Arial" font-size="24px" font-style="normal" font-weight="normal" text-decoration="none" x="200" y="30">UNREGISTERED</text><text fill="#eeeeee" stroke="none" font-family="Arial" font-size="24px" font-style="normal" font-weight="normal" text-decoration="none" x="200" y="60">UNREGISTERED</text><text fill="#eeeeee" stroke="none" font-family="Arial" font-size="24px" font-style="normal" font-weight="normal" text-decoration="none" x="200" y="90">UNREGISTERED</text><text fill="#eeeeee" stroke="none" font-family="Arial" font-size="24px" font-style="normal" font-weight="normal" text-decoration="none" x="200" y="120">UNREGISTERED</text><text fill="#eeeeee" stroke="none" font-family="Arial" font-size="24px" font-style="normal" font-weight="normal" text-decoration="none" x="200" y="150">UNREGISTERED</text><text fill="#eeeeee" stroke="none" font-family="Arial" font-size="24px" font-style="normal" font-weight="normal" text-decoration="none" x="200" y="180">UNREGISTERED</text><text fill="#eeeeee" stroke="none" font-family="Arial" font-size="24px" font-style="normal" font-weight="normal" text-decoration="none" x="200" y="210">UNREGISTERED</text><text fill="#eeeeee" stroke="none" font-family="Arial" font-size="24px" font-style="normal" font-weight="normal" text-decoration="none" x="200" y="240">UNREGISTERED</text><text fill="#eeeeee" stroke="none" font-family="Arial" font-size="24px" font-style="normal" font-weight="normal" text-decoration="none" x="200" y="270">UNREGISTERED</text><text fill="#eeeeee" stroke="none" font-family="Arial" font-size="24px" font-style="normal" font-weight="normal" text-decoration="none" x="200" y="300">UNREGISTERED</text><text fill="#eeeeee" stroke="none" font-family="Arial" font-size="24px" font-style="normal" font-weight="normal" text-decoration="none" x="200" y="330">UNREGISTERED</text><text fill="#eeeeee" stroke="none" font-family="Arial" font-size="24px" font-style="normal" font-weight="normal" text-decoration="none" x="200" y="360">UNREGISTERED</text><text fill="#eeeeee" stroke="none" font-family="Arial" font-size="24px" font-style="normal" font-weight="normal" text-decoration="none" x="400" y="0">UNREGISTERED</text><text fill="#eeeeee" stroke="none" font-family="Arial" font-size="24px" font-style="normal" font-weight="normal" text-decoration="none" x="400" y="30">UNREGISTERED</text><text fill="#eeeeee" stroke="none" font-family="Arial" font-size="24px" font-style="normal" font-weight="normal" text-decoration="none" x="400" y="60">UNREGISTERED</text><text fill="#eeeeee" stroke="none" font-family="Arial" font-size="24px" font-style="normal" font-weight="normal" text-decoration="none" x="400" y="90">UNREGISTERED</text><text fill="#eeeeee" stroke="none" font-family="Arial" font-size="24px" font-style="normal" font-weight="normal" text-decoration="none" x="400" y="120">UNREGISTERED</text><text fill="#eeeeee" stroke="none" font-family="Arial" font-size="24px" font-style="normal" font-weight="normal" text-decoration="none" x="400" y="150">UNREGISTERED</text><text fill="#eeeeee" stroke="none" font-family="Arial" font-size="24px" font-style="normal" font-weight="normal" text-decoration="none" x="400" y="180">UNREGISTERED</text><text fill="#eeeeee" stroke="none" font-family="Arial" font-size="24px" font-style="normal" font-weight="normal" text-decoration="none" x="400" y="210">UNREGISTERED</text><text fill="#eeeeee" stroke="none" font-family="Arial" font-size="24px" font-style="normal" font-weight="normal" text-decoration="none" x="400" y="240">UNREGISTERED</text><text fill="#eeeeee" stroke="none" font-family="Arial" font-size="24px" font-style="normal" font-weight="normal" text-decoration="none" x="400" y="270">UNREGISTERED</text><text fill="#eeeeee" stroke="none" font-family="Arial" font-size="24px" font-style="normal" font-weight="normal" text-decoration="none" x="400" y="300">UNREGISTERED</text><text fill="#eeeeee" stroke="none" font-family="Arial" font-size="24px" font-style="normal" font-weight="normal" text-decoration="none" x="400" y="330">UNREGISTERED</text><text fill="#eeeeee" stroke="none" font-family="Arial" font-size="24px" font-style="normal" font-weight="normal" text-decoration="none" x="400" y="360">UNREGISTERED</text><g transform="translate(-6,-22) scale(1,1)"><path fill="#C0C0C0" stroke="none" d="M 209 191 L 325.1689453125 191 Q 335.1689453125 191 335.1689453125 201 L 335.1689453125 220 Q 335.1689453125 230 325.1689453125 230 L 209 230 Q 199 230 199 220 L 199 201 Q 199 191 209 191 Z" opacity="0.2"/></g><g transform="translate(-6,-22) scale(1,1)"><path fill="#ffffff" stroke="none" d="M 202 184 L 318.1689453125 184 Q 328.1689453125 184 328.1689453125 194 L 328.1689453125 213 Q 328.1689453125 223 318.1689453125 223 L 202 223 Q 192 223 192 213 L 192 194 Q 192 184 202 184 Z"/></g><g transform="translate(-6,-22) scale(1,1)"><path fill="none" stroke="#000000" d="M 202 184 L 318.1689453125 184 Q 328.1689453125 184 328.1689453125 194 L 328.1689453125 213 Q 328.1689453125 223 318.1689453125 223 L 202 223 Q 192 223 192 213 L 192 194 Q 192 184 202 184 Z" stroke-miterlimit="10"/></g><g transform="translate(-6,-22) scale(1,1)"><g><path fill="none" stroke="none"/><text fill="#000000" stroke="none" font-family="Arial" font-size="13px" font-style="normal" font-weight="bold" text-decoration="none" x="199.37548828125" y="203.5">Selected Event Page</text></g></g><g transform="translate(-6,-22) scale(1,1)"><path fill="#C0C0C0" stroke="none" d="M 335 48.5 C 335 43.2532944 339.2532944 39 344.5 39 C 349.7467056 39 354 43.2532944 354 48.5 C 354 53.7467056 349.7467056 58 344.5 58 C 339.2532944 58 335 53.7467056 335 48.5 Z" opacity="0.2"/></g><g transform="translate(-6,-22) scale(1,1)"><path fill="#000000" stroke="none" d="M 328 41.5 C 328 36.2532944 332.2532944 32 337.5 32 C 342.7467056 32 347 36.2532944 347 41.5 C 347 46.7467056 342.7467056 51 337.5 51 C 332.2532944 51 328 46.7467056 328 41.5 Z"/></g><g transform="translate(-6,-22) scale(1,1)"><path fill="#C0C0C0" stroke="none" d="M 33 351 L 174.6103515625 351 Q 184.6103515625 351 184.6103515625 361 L 184.6103515625 380 Q 184.6103515625 390 174.6103515625 390 L 33 390 Q 23 390 23 380 L 23 361 Q 23 351 33 351 Z" opacity="0.2"/></g><g transform="translate(-6,-22) scale(1,1)"><path fill="#ffffff" stroke="none" d="M 26 344 L 167.6103515625 344 Q 177.6103515625 344 177.6103515625 354 L 177.6103515625 373 Q 177.6103515625 383 167.6103515625 383 L 26 383 Q 16 383 16 373 L 16 354 Q 16 344 26 344 Z"/></g><g transform="translate(-6,-22) scale(1,1)"><path fill="none" stroke="#000000" d="M 26 344 L 167.6103515625 344 Q 177.6103515625 344 177.6103515625 354 L 177.6103515625 373 Q 177.6103515625 383 167.6103515625 383 L 26 383 Q 16 383 16 373 L 16 354 Q 16 344 26 344 Z" stroke-miterlimit="10"/></g><g transform="translate(-6,-22) scale(1,1)"><g><path fill="none" stroke="none"/><text fill="#000000" stroke="none" font-family="Arial" font-size="13px" font-style="normal" font-weight="bold" text-decoration="none" x="26.590576171875" y="363.5">Adding to the Watch List</text></g></g><g transform="translate(-6,-22) scale(1,1)"><path fill="none" stroke="#000000" d="M 238 224 L 117 343" stroke-miterlimit="10"/></g><g transform="translate(-6,-22) scale(1,1)"><path fill="none" stroke="#000000" d="M 121.2940576165285 332.87275609131814 L 117 343 L 127.19740010201214 338.87531441689396" stroke-miterlimit="10"/></g><g transform="translate(-6,-22) scale(1,1)"><g><path fill="none" stroke="none"/><text fill="#000000" stroke="none" font-family="Arial" font-size="13px" font-style="normal" font-weight="normal" text-decoration="none" x="184.5" y="300.5">Click Add to Watch List</text></g></g><g transform="translate(-6,-22) scale(1,1)"><path fill="#C0C0C0" stroke="none" d="M 305 79 L 389.1259765625 79 Q 399.1259765625 79 399.1259765625 89 L 399.1259765625 108 Q 399.1259765625 118 389.1259765625 118 L 305 118 Q 295 118 295 108 L 295 89 Q 295 79 305 79 Z" opacity="0.2"/></g><g transform="translate(-6,-22) scale(1,1)"><path fill="#ffffff" stroke="none" d="M 298 72 L 382.1259765625 72 Q 392.1259765625 72 392.1259765625 82 L 392.1259765625 101 Q 392.1259765625 111 382.1259765625 111 L 298 111 Q 288 111 288 101 L 288 82 Q 288 72 298 72 Z"/></g><g transform="translate(-6,-22) scale(1,1)"><path fill="none" stroke="#000000" d="M 298 72 L 382.1259765625 72 Q 392.1259765625 72 392.1259765625 82 L 392.1259765625 101 Q 392.1259765625 111 382.1259765625 111 L 298 111 Q 288 111 288 101 L 288 82 Q 288 72 298 72 Z" stroke-miterlimit="10"/></g><g transform="translate(-6,-22) scale(1,1)"><g><path fill="none" stroke="none"/><text fill="#000000" stroke="none" font-family="Arial" font-size="13px" font-style="normal" font-weight="bold" text-decoration="none" x="295.740478515625" y="91.5">Viewing Events</text></g></g><g transform="translate(-6,-22) scale(1,1)"><path fill="none" stroke="#000000" d="M 338 52 L 339 71" stroke-miterlimit="10"/></g><g transform="translate(-6,-22) scale(1,1)"><path fill="none" stroke="#000000" d="M 334.2621621840279 61.07261903473305 L 339 71 L 342.66956115212656 60.630124352201534" stroke-miterlimit="10"/></g><g transform="translate(-6,-22) scale(1,1)"><path fill="none" stroke="#000000" d="M 325 112 L 274 183" stroke-miterlimit="10"/></g><g transform="translate(-6,-22) scale(1,1)"><path fill="none" stroke="#000000" d="M 276.51000157822955 172.29019645010771 L 274 183 L 283.34781385205963 177.20186442145047" stroke-miterlimit="10"/></g><g transform="translate(-6,-22) scale(1,1)"><g><path fill="none" stroke="none"/><text fill="#000000" stroke="none" font-family="Arial" font-size="13px" font-style="normal" font-weight="normal" text-decoration="none" x="314.5" y="162.5">Select Specific Event</text></g></g><g transform="translate(-6,-22) scale(1,1)"><path fill="none" stroke="#000000" d="M 287 92 L 96 96 L 96 343" stroke-miterlimit="10"/></g><g transform="translate(-6,-22) scale(1,1)"><path fill="none" stroke="#000000" d="M 91.79048224398402 332.83732514237585 L 96 343 L 100.20951775601598 332.83732514237585" stroke-miterlimit="10"/></g><g transform="translate(-6,-22) scale(1,1)"><g><path fill="none" stroke="none"/><text fill="#000000" stroke="none" font-family="Arial" font-size="13px" font-style="normal" font-weight="normal" text-decoration="none" x="110.5" y="111.5">Add Event From Event List</text></g></g></g></svg>