<svg version="1.1" xmlns="http://www.w3.org/2000/svg" xmlns:xlink="http://www.w3.org/1999/xlink" width="662.6962890625" height="408"><defs/><g><text fill="#eeeeee" stroke="none" font-family="Arial" font-size="24px" font-style="normal" font-weight="normal" text-decoration="none" x="0" y="0">UNREGISTERED</text><text fill="#eeeeee" stroke="none" font-family="Arial" font-size="24px" font-style="normal" font-weight="normal" text-decoration="none" x="0" y="30">UNREGISTERED</text><text fill="#eeeeee" stroke="none" font-family="Arial" font-size="24px" font-style="normal" font-weight="normal" text-decoration="none" x="0" y="60">UNREGISTERED</text><text fill="#eeeeee" stroke="none" font-family="Arial" font-size="24px" font-style="normal" font-weight="normal" text-decoration="none" x="0" y="90">UNREGISTERED</text><text fill="#eeeeee" stroke="none" font-family="Arial" font-size="24px" font-style="normal" font-weight="normal" text-decoration="none" x="0" y="120">UNREGISTERED</text><text fill="#eeeeee" stroke="none" font-family="Arial" font-size="24px" font-style="normal" font-weight="normal" text-decoration="none" x="0" y="150">UNREGISTERED</text><text fill="#eeeeee" stroke="none" font-family="Arial" font-size="24px" font-style="normal" font-weight="normal" text-decoration="none" x="0" y="180">UNREGISTERED</text><text fill="#eeeeee" stroke="none" font-family="Arial" font-size="24px" font-style="normal" font-weight="normal" text-decoration="none" x="0" y="210">UNREGISTERED</text><text fill="#eeeeee" stroke="none" font-family="Arial" font-size="24px" font-style="normal" font-weight="normal" text-decoration="none" x="0" y="240">UNREGISTERED</text><text fill="#eeeeee" stroke="none" font-family="Arial" font-size="24px" font-style="normal" font-weight="normal" text-decoration="none" x="0" y="270">UNREGISTERED</text><text fill="#eeeeee" stroke="none" font-family="Arial" font-size="24px" font-style="normal" font-weight="normal" text-decoration="none" x="0" y="300">UNREGISTERED</text><text fill="#eeeeee" stroke="none" font-family="Arial" font-size="24px" font-style="normal" font-weight="normal" text-decoration="none" x="0" y="330">UNREGISTERED</text><text fill="#eeeeee" stroke="none" font-family="Arial" font-size="24px" font-style="normal" font-weight="normal" text-decoration="none" x="0" y="360">UNREGISTERED</text><text fill="#eeeeee" stroke="none" font-family="Arial" font-size="24px" font-style="normal" font-weight="normal" text-decoration="none" x="0" y="390">UNREGISTERED</text><text fill="#eeeeee" stroke="none" font-family="Arial" font-size="24px" font-style="normal" font-weight="normal" text-decoration="none" x="200" y="0">UNREGISTERED</text><text fill="#eeeeee" stroke="none" font-family="Arial" font-size="24px" font-style="normal" font-weight="normal" text-decoration="none" x="200" y="30">UNREGISTERED</text><text fill="#eeeeee" stroke="none" font-family="Arial" font-size="24px" font-style="normal" font-weight="normal" text-decoration="none" x="200" y="60">UNREGISTERED</text><text fill="#eeeeee" stroke="none" font-family="Arial" font-size="24px" font-style="normal" font-weight="normal" text-decoration="none" x="200" y="90">UNREGISTERED</text><text fill="#eeeeee" stroke="none" font-family="Arial" font-size="24px" font-style="normal" font-weight="normal" text-decoration="none" x="200" y="120">UNREGISTERED</text><text fill="#eeeeee" stroke="none" font-family="Arial" font-size="24px" font-style="normal" font-weight="normal" text-decoration="none" x="200" y="150">UNREGISTERED</text><text fill="#eeeeee" stroke="none" font-family="Arial" font-size="24px" font-style="normal" font-weight="normal" text-decoration="none" x="200" y="180">UNREGISTERED</text><text fill="#eeeeee" stroke="none" font-family="Arial" font-size="24px" font-style="normal" font-weight="normal" text-decoration="none" x="200" y="210">UNREGISTERED</text><text fill="#eeeeee" stroke="none" font-family="Arial" font-size="24px" font-style="normal" font-weight="normal" text-decoration="none" x="200" y="240">UNREGISTERED</text><text fill="#eeeeee" stroke="none" font-family="Arial" font-size="24px" font-style="normal" font-weight="normal" text-decoration="none" x="200" y="270">UNREGISTERED</text><text fill="#eeeeee" stroke="none" font-family="Arial" font-size="24px" font-style="normal" font-weight="normal" text-decoration="none" x="200" y="300">UNREGISTERED</text><text fill="#eeeeee" stroke="none" font-family="Arial" font-size="24px" font-style="normal" font-weight="normal" text-decoration="none" x="200" y="330">UNREGISTERED</text><text fill="#eeeeee" stroke="none" font-family="Arial" font-size="24px" font-style="normal" font-weight="normal" text-decoration="none" x="200" y="360">UNREGISTERED</text><text fill="#eeeeee" stroke="none" font-family="Arial" font-size="24px" font-style="normal" font-weight="normal" text-decoration="none" x="200" y="390">UNREGISTERED</text><text fill="#eeeeee" stroke="none" font-family="Arial" font-size="24px" font-style="normal" font-weight="normal" text-decoration="none" x="400" y="0">UNREGISTERED</text><text fill="#eeeeee" stroke="none" font-family="Arial" font-size="24px" font-style="normal" font-weight="normal" text-decoration="none" x="400" y="30">UNREGISTERED</text><text fill="#eeeeee" stroke="none" font-family="Arial" font-size="24px" font-style="normal" font-weight="normal" text-decoration="none" x="400" y="60">UNREGISTERED</text><text fill="#eeeeee" stroke="none" font-family="Arial" font-size="24px" font-style="normal" font-weight="normal" text-decoration="none" x="400" y="90">UNREGISTERED</text><text fill="#eeeeee" stroke="none" font-family="Arial" font-size="24px" font-style="normal" font-weight="normal" text-decoration="none" x="400" y="120">UNREGISTERED</text><text fill="#eeeeee" stroke="none" font-family="Arial" font-size="24px" font-style="normal" font-weight="normal" text-decoration="none" x="400" y="150">UNREGISTERED</text><text fill="#eeeeee" stroke="none" font-family="Arial" font-size="24px" font-style="normal" font-weight="normal" text-decoration="none" x="400" y="180">UNREGISTERED</text><text fill="#eeeeee" stroke="none" font-family="Arial" font-size="24px" font-style="normal" font-weight="normal" text-decoration="none" x="400" y="210">UNREGISTERED</text><text fill="#eeeeee" stroke="none" font-family="Arial" font-size="24px" font-style="normal" font-weight="normal" text-decoration="none" x="400" y="240">UNREGISTERED</text><text fill="#eeeeee" stroke="none" font-family="Arial" font-size="24px" font-style="normal" font-weight="normal" text-decoration="none" x="400" y="270">UNREGISTERED</text><text fill="#eeeeee" stroke="none" font-family="Arial" font-size="24px" font-style="normal" font-weight="normal" text-decoration="none" x="400" y="300">UNREGISTERED</text><text fill="#eeeeee" stroke="none" font-family="Arial" font-size="24px" font-style="normal" font-weight="normal" text-decoration="none" x="400" y="330">UNREGISTERED</text><text fill="#eeeeee" stroke="none" font-family="Arial" font-size="24px" font-style="normal" font-weight="normal" text-decoration="none" x="400" y="360">UNREGISTERED</text><text fill="#eeeeee" stroke="none" font-family="Arial" font-size="24px" font-style="normal" font-weight="normal" text-decoration="none" x="400" y="390">UNREGISTERED</text><text fill="#eeeeee" stroke="none" font-family="Arial" font-size="24px" font-style="normal" font-weight="normal" text-decoration="none" x="600" y="0">UNREGISTERED</text><text fill="#eeeeee" stroke="none" font-family="Arial" font-size="24px" font-style="normal" font-weight="normal" text-decoration="none" x="600" y="30">UNREGISTERED</text><text fill="#eeeeee" stroke="none" font-family="Arial" font-size="24px" font-style="normal" font-weight="normal" text-decoration="none" x="600" y="60">UNREGISTERED</text><text fill="#eeeeee" stroke="none" font-family="Arial" font-size="24px" font-style="normal" font-weight="normal" text-decoration="none" x="600" y="90">UNREGISTERED</text><text fill="#eeeeee" stroke="none" font-family="Arial" font-size="24px" font-style="normal" font-weight="normal" text-decoration="none" x="600" y="120">UNREGISTERED</text><text fill="#eeeeee" stroke="none" font-family="Arial" font-size="24px" font-style="normal" font-weight="normal" text-decoration="none" x="600" y="150">UNREGISTERED</text><text fill="#eeeeee" stroke="none" font-family="Arial" font-size="24px" font-style="normal" font-weight="normal" text-decoration="none" x="600" y="180">UNREGISTERED</text><text fill="#eeeeee" stroke="none" font-family="Arial" font-size="24px" font-style="normal" font-weight="normal" text-decoration="none" x="600" y="210">UNREGISTERED</text><text fill="#eeeeee" stroke="none" font-family="Arial" font-size="24px" font-style="normal" font-weight="normal" text-decoration="none" x="600" y="240">UNREGISTERED</text><text fill="#eeeeee" stroke="none" font-family="Arial" font-size="24px" font-style="normal" font-weight="normal" text-decoration="none" x="600" y="270">UNREGISTERED</text><text fill="#eeeeee" stroke="none" font-family="Arial" font-size="24px" font-style="normal" font-weight="normal" text-decoration="none" x="600" y="300">UNREGISTERED</text><text fill="#eeeeee" stroke="none" font-family="Arial" font-size="24px" font-style="normal" font-weight="normal" text-decoration="none" x="600" y="330">UNREGISTERED</text><text fill="#eeeeee" stroke="none" font-family="Arial" font-size="24px" font-style="normal" font-weight="normal" text-decoration="none" x="600" y="360">UNREGISTERED</text><text fill="#eeeeee" stroke="none" font-family="Arial" font-size="24px" font-style="normal" font-weight="normal" text-decoration="none" x="600" y="390">UNREGISTERED</text><g transform="translate(-102,-310) scale(1,1)"><path fill="#C0C0C0" stroke="none" d="M 135 344.5 C 135 339.2532944 139.2532944 335 144.5 335 C 149.7467056 335 154 339.2532944 154 344.5 C 154 349.7467056 149.7467056 354 144.5 354 C 139.2532944 354 135 349.7467056 135 344.5 Z" opacity="0.2"/></g><g transform="translate(-102,-310) scale(1,1)"><path fill="#000000" stroke="none" d="M 128 337.5 C 128 332.2532944 132.2532944 328 137.5 328 C 142.7467056 328 147 332.2532944 147 337.5 C 147 342.7467056 142.7467056 347 137.5 347 C 132.2532944 347 128 342.7467056 128 337.5 Z"/></g><g transform="translate(-102,-310) scale(1,1)"><path fill="#C0C0C0" stroke="none" d="M 297 327 L 390.03173828125 327 Q 400.03173828125 327 400.03173828125 337 L 400.03173828125 356 Q 400.03173828125 366 390.03173828125 366 L 297 366 Q 287 366 287 356 L 287 337 Q 287 327 297 327 Z" opacity="0.2"/></g><g transform="translate(-102,-310) scale(1,1)"><path fill="#ffffff" stroke="none" d="M 290 320 L 383.03173828125 320 Q 393.03173828125 320 393.03173828125 330 L 393.03173828125 349 Q 393.03173828125 359 383.03173828125 359 L 290 359 Q 280 359 280 349 L 280 330 Q 280 320 290 320 Z"/></g><g transform="translate(-102,-310) scale(1,1)"><path fill="none" stroke="#000000" d="M 290 320 L 383.03173828125 320 Q 393.03173828125 320 393.03173828125 330 L 393.03173828125 349 Q 393.03173828125 359 383.03173828125 359 L 290 359 Q 280 359 280 349 L 280 330 Q 280 320 290 320 Z" stroke-miterlimit="10"/></g><g transform="translate(-102,-310) scale(1,1)"><g><path fill="none" stroke="none"/><text fill="#000000" stroke="none" font-family="Arial" font-size="13px" font-style="normal" font-weight="bold" text-decoration="none" x="287.3818359375" y="339.5">Event Data Entry</text></g></g><g transform="translate(-102,-310) scale(1,1)"><path fill="#C0C0C0" stroke="none" d="M 561 391 L 655.22509765625 391 Q 665.22509765625 391 665.22509765625 401 L 665.22509765625 420 Q 665.22509765625 430 655.22509765625 430 L 561 430 Q 551 430 551 420 L 551 401 Q 551 391 561 391 Z" opacity="0.2"/></g><g transform="translate(-102,-310) scale(1,1)"><path fill="#ffffff" stroke="none" d="M 554 384 L 648.22509765625 384 Q 658.22509765625 384 658.22509765625 394 L 658.22509765625 413 Q 658.22509765625 423 648.22509765625 423 L 554 423 Q 544 423 544 413 L 544 394 Q 544 384 554 384 Z"/></g><g transform="translate(-102,-310) scale(1,1)"><path fill="none" stroke="#000000" d="M 554 384 L 648.22509765625 384 Q 658.22509765625 384 658.22509765625 394 L 658.22509765625 413 Q 658.22509765625 423 648.22509765625 423 L 554 423 Q 544 423 544 413 L 544 394 Q 544 384 554 384 Z" stroke-miterlimit="10"/></g><g transform="translate(-102,-310) scale(1,1)"><g><path fill="none" stroke="none"/><text fill="#000000" stroke="none" font-family="Arial" font-size="13px" font-style="normal" font-weight="bold" text-decoration="none" x="551.613525390625" y="403.5">Event Draft Page</text></g></g><g transform="translate(-102,-310) scale(1,1)"><path fill="#C0C0C0" stroke="none" d="M 593 535 L 672.2890625 535 Q 682.2890625 535 682.2890625 545 L 682.2890625 564 Q 682.2890625 574 672.2890625 574 L 593 574 Q 583 574 583 564 L 583 545 Q 583 535 593 535 Z" opacity="0.2"/></g><g transform="translate(-102,-310) scale(1,1)"><path fill="#ffffff" stroke="none" d="M 586 528 L 665.2890625 528 Q 675.2890625 528 675.2890625 538 L 675.2890625 557 Q 675.2890625 567 665.2890625 567 L 586 567 Q 576 567 576 557 L 576 538 Q 576 528 586 528 Z"/></g><g transform="translate(-102,-310) scale(1,1)"><path fill="none" stroke="#000000" d="M 586 528 L 665.2890625 528 Q 675.2890625 528 675.2890625 538 L 675.2890625 557 Q 675.2890625 567 665.2890625 567 L 586 567 Q 576 567 576 557 L 576 538 Q 576 528 586 528 Z" stroke-miterlimit="10"/></g><g transform="translate(-102,-310) scale(1,1)"><g><path fill="none" stroke="none"/><text fill="#000000" stroke="none" font-family="Arial" font-size="13px" font-style="normal" font-weight="bold" text-decoration="none" x="583.36279296875" y="547.5">Event Pending</text></g></g><g transform="translate(-102,-310) scale(1,1)"><path fill="#C0C0C0" stroke="none" d="M 353 463 L 444.58447265625 463 Q 454.58447265625 463 454.58447265625 473 L 454.58447265625 492 Q 454.58447265625 502 444.58447265625 502 L 353 502 Q 343 502 343 492 L 343 473 Q 343 463 353 463 Z" opacity="0.2"/></g><g transform="translate(-102,-310) scale(1,1)"><path fill="#ffffff" stroke="none" d="M 346 456 L 437.58447265625 456 Q 447.58447265625 456 447.58447265625 466 L 447.58447265625 485 Q 447.58447265625 495 437.58447265625 495 L 346 495 Q 336 495 336 485 L 336 466 Q 336 456 346 456 Z"/></g><g transform="translate(-102,-310) scale(1,1)"><path fill="none" stroke="#000000" d="M 346 456 L 437.58447265625 456 Q 447.58447265625 456 447.58447265625 466 L 447.58447265625 485 Q 447.58447265625 495 437.58447265625 495 L 346 495 Q 336 495 336 485 L 336 466 Q 336 456 346 456 Z" stroke-miterlimit="10"/></g><g transform="translate(-102,-310) scale(1,1)"><g><path fill="none" stroke="none"/><text fill="#000000" stroke="none" font-family="Arial" font-size="13px" font-style="normal" font-weight="bold" text-decoration="none" x="344.102294921875" y="475.5">Event Unverified</text></g></g><g transform="translate(-102,-310) scale(1,1)"><path fill="#C0C0C0" stroke="none" d="M 345 607 L 438.0126953125 607 Q 448.0126953125 607 448.0126953125 617 L 448.0126953125 636 Q 448.0126953125 646 438.0126953125 646 L 345 646 Q 335 646 335 636 L 335 617 Q 335 607 345 607 Z" opacity="0.2"/></g><g transform="translate(-102,-310) scale(1,1)"><path fill="#ffffff" stroke="none" d="M 338 600 L 431.0126953125 600 Q 441.0126953125 600 441.0126953125 610 L 441.0126953125 629 Q 441.0126953125 639 431.0126953125 639 L 338 639 Q 328 639 328 629 L 328 610 Q 328 600 338 600 Z"/></g><g transform="translate(-102,-310) scale(1,1)"><path fill="none" stroke="#000000" d="M 338 600 L 431.0126953125 600 Q 441.0126953125 600 441.0126953125 610 L 441.0126953125 629 Q 441.0126953125 639 431.0126953125 639 L 338 639 Q 328 639 328 629 L 328 610 Q 328 600 338 600 Z" stroke-miterlimit="10"/></g><g transform="translate(-102,-310) scale(1,1)"><g><path fill="none" stroke="none"/><text fill="#000000" stroke="none" font-family="Arial" font-size="13px" font-style="normal" font-weight="bold" text-decoration="none" x="336.095947265625" y="619.5">Event Confirmed</text></g></g><g transform="translate(-102,-310) scale(1,1)"><path fill="#C0C0C0" stroke="none" d="M 129 439 L 215.53173828125 439 Q 225.53173828125 439 225.53173828125 449 L 225.53173828125 468 Q 225.53173828125 478 215.53173828125 478 L 129 478 Q 119 478 119 468 L 119 449 Q 119 439 129 439 Z" opacity="0.2"/></g><g transform="translate(-102,-310) scale(1,1)"><path fill="#ffffff" stroke="none" d="M 122 432 L 208.53173828125 432 Q 218.53173828125 432 218.53173828125 442 L 218.53173828125 461 Q 218.53173828125 471 208.53173828125 471 L 122 471 Q 112 471 112 461 L 112 442 Q 112 432 122 432 Z"/></g><g transform="translate(-102,-310) scale(1,1)"><path fill="none" stroke="#000000" d="M 122 432 L 208.53173828125 432 Q 218.53173828125 432 218.53173828125 442 L 218.53173828125 461 Q 218.53173828125 471 208.53173828125 471 L 122 471 Q 112 471 112 461 L 112 442 Q 112 432 122 432 Z" stroke-miterlimit="10"/></g><g transform="translate(-102,-310) scale(1,1)"><g><path fill="none" stroke="none"/><text fill="#000000" stroke="none" font-family="Arial" font-size="13px" font-style="normal" font-weight="bold" text-decoration="none" x="124.4345703125" y="451.5">Event Deleted</text></g></g><g transform="translate(-102,-310) scale(1,1)"><path fill="#C0C0C0" stroke="none" d="M 383 699.5 C 383 692.59644 388.59644 687 395.5 687 C 402.40356 687 408 692.59644 408 699.5 C 408 706.40356 402.40356 712 395.5 712 C 388.59644 712 383 706.40356 383 699.5 Z" opacity="0.2"/></g><g transform="translate(-102,-310) scale(1,1)"><path fill="none" stroke="#000000" d="M 376 692.5 C 376 685.59644 381.59644 680 388.5 680 C 395.40356 680 401 685.59644 401 692.5 C 401 699.40356 395.40356 705 388.5 705 C 381.59644 705 376 699.40356 376 692.5 Z" stroke-miterlimit="10"/></g><g transform="translate(-102,-310) scale(1,1)"><path fill="#000000" stroke="none" d="M 381 692.5 C 381 688.357864 384.357864 685 388.5 685 C 392.642136 685 396 688.357864 396 692.5 C 396 696.642136 392.642136 700 388.5 700 C 384.357864 700 381 696.642136 381 692.5 Z"/></g><g transform="translate(-102,-310) scale(1,1)"><path fill="none" stroke="#000000" d="M 148 337 L 279 338" stroke-miterlimit="10"/></g><g transform="translate(-102,-310) scale(1,1)"><path fill="none" stroke="#000000" d="M 268.80548844028897 342.1318197030992 L 279 338 L 268.8697540145421 333.71302947594535" stroke-miterlimit="10"/></g><g transform="translate(-102,-310) scale(1,1)"><path fill="#C0C0C0" stroke="none" d="M 455 392.5 L 466.5 383 L 477 392.5 L 466.5 401 L 455 392.5" opacity="0.2"/></g><g transform="translate(-102,-310) scale(1,1)"><path fill="#ffffff" stroke="none" d="M 448 385 L 459 376 L 470 385 L 459 394 L 448 385"/></g><g transform="translate(-102,-310) scale(1,1)"><path fill="none" stroke="#000000" d="M 448 385 L 459 376 L 470 385 L 459 394 L 448 385 L 448 385" stroke-miterlimit="10"/></g><g transform="translate(-102,-310) scale(1,1)"><path fill="#C0C0C0" stroke="none" d="M 735 408.5 L 746.5 399 L 757 408.5 L 746.5 417 L 735 408.5" opacity="0.2"/></g><g transform="translate(-102,-310) scale(1,1)"><path fill="#ffffff" stroke="none" d="M 728 401 L 739 392 L 750 401 L 739 410 L 728 401"/></g><g transform="translate(-102,-310) scale(1,1)"><path fill="none" stroke="#000000" d="M 728 401 L 739 392 L 750 401 L 739 410 L 728 401 L 728 401" stroke-miterlimit="10"/></g><g transform="translate(-102,-310) scale(1,1)"><path fill="#C0C0C0" stroke="none" d="M 471 552.5 L 482.5 543 L 493 552.5 L 482.5 561 L 471 552.5" opacity="0.2"/></g><g transform="translate(-102,-310) scale(1,1)"><path fill="#ffffff" stroke="none" d="M 464 545 L 475 536 L 486 545 L 475 554 L 464 545"/></g><g transform="translate(-102,-310) scale(1,1)"><path fill="none" stroke="#000000" d="M 464 545 L 475 536 L 486 545 L 475 554 L 464 545 L 464 545" stroke-miterlimit="10"/></g><g transform="translate(-102,-310) scale(1,1)"><path fill="#C0C0C0" stroke="none" d="M 271 504.5 L 282.5 495 L 293 504.5 L 282.5 513 L 271 504.5" opacity="0.2"/></g><g transform="translate(-102,-310) scale(1,1)"><path fill="#ffffff" stroke="none" d="M 264 497 L 275 488 L 286 497 L 275 506 L 264 497"/></g><g transform="translate(-102,-310) scale(1,1)"><path fill="none" stroke="#000000" d="M 264 497 L 275 488 L 286 497 L 275 506 L 264 497 L 264 497" stroke-miterlimit="10"/></g><g transform="translate(-102,-310) scale(1,1)"><path fill="none" stroke="#000000" d="M 392 360 L 447 381" stroke-miterlimit="10"/></g><g transform="translate(-102,-310) scale(1,1)"><path fill="none" stroke="#000000" d="M 436.00430072111754 381.3075668518939 L 447 381 L 439.0073838693718 373.44234908265656" stroke-miterlimit="10"/></g><g transform="translate(-102,-310) scale(1,1)"><g><path fill="none" stroke="none"/><text fill="#000000" stroke="none" font-family="Arial" font-size="13px" font-style="normal" font-weight="normal" text-decoration="none" x="398.5" y="364.5">Submit Pushed</text></g></g><g transform="translate(-102,-310) scale(1,1)"><path fill="none" stroke="#000000" d="M 447 385 L 328 384 L 332 360" stroke-miterlimit="10"/></g><g transform="translate(-102,-310) scale(1,1)"><path fill="none" stroke="#000000" d="M 334.4815092818907 370.7164411855751 L 332 360 L 326.1770238082953 369.33236027330923" stroke-miterlimit="10"/></g><g transform="translate(-102,-310) scale(1,1)"><g><path fill="none" stroke="none"/><text fill="#000000" stroke="none" font-family="Arial" font-size="13px" font-style="normal" font-weight="normal" text-decoration="none" x="335.5" y="403.5">Input Errors</text></g></g><g transform="translate(-102,-310) scale(1,1)"><path fill="none" stroke="#000000" d="M 471 387 L 543 396" stroke-miterlimit="10"/></g><g transform="translate(-102,-310) scale(1,1)"><path fill="none" stroke="#000000" d="M 532.3936761529293 398.9164866622462 L 543 396 L 533.4379289881613 390.56246398039013" stroke-miterlimit="10"/></g><g transform="translate(-102,-310) scale(1,1)"><g><path fill="none" stroke="none"/><text fill="#000000" stroke="none" font-family="Arial" font-size="13px" font-style="normal" font-weight="normal" text-decoration="none" x="476.5" y="382.5">Input Good</text></g></g><g transform="translate(-102,-310) scale(1,1)"><path fill="none" stroke="#000000" d="M 596 383 L 584 336 L 394 338" stroke-miterlimit="10"/></g><g transform="translate(-102,-310) scale(1,1)"><path fill="none" stroke="#000000" d="M 404.1178036167929 333.6837458401975 L 394 338 L 404.206420133869 342.1023149624271" stroke-miterlimit="10"/></g><g transform="translate(-102,-310) scale(1,1)"><g><path fill="none" stroke="none"/><text fill="#000000" stroke="none" font-family="Arial" font-size="13px" font-style="normal" font-weight="normal" text-decoration="none" x="554.5" y="356.5">Edit Event</text></g></g><g transform="translate(-102,-310) scale(1,1)"><path fill="none" stroke="#000000" d="M 659 402 L 727 401" stroke-miterlimit="10"/></g><g transform="translate(-102,-310) scale(1,1)"><path fill="none" stroke="#000000" d="M 716.9003218494456 405.3584975915118 L 727 401 L 716.7765258891982 396.9403722946846" stroke-miterlimit="10"/></g><g transform="translate(-102,-310) scale(1,1)"><g><path fill="none" stroke="none"/><text fill="#000000" stroke="none" font-family="Arial" font-size="13px" font-style="normal" font-weight="normal" text-decoration="none" x="660.5" y="419.5">Delete Event</text></g></g><g transform="translate(-102,-310) scale(1,1)"><path fill="none" stroke="#000000" d="M 729 391 L 688 352 L 635 383" stroke-miterlimit="10"/></g><g transform="translate(-102,-310) scale(1,1)"><path fill="none" stroke="#000000" d="M 641.6469796723676 374.23543148608377 L 635 383 L 645.8976102311045 381.50263857037595" stroke-miterlimit="10"/></g><g transform="translate(-102,-310) scale(1,1)"><g><path fill="none" stroke="none"/><text fill="#000000" stroke="none" font-family="Arial" font-size="13px" font-style="normal" font-weight="normal" text-decoration="none" x="638.5" y="348.5">Unconfirm Delete</text></g></g><g transform="translate(-102,-310) scale(1,1)"><path fill="none" stroke="#000000" d="M 738 411 L 712 688 L 402 692" stroke-miterlimit="10"/></g><g transform="translate(-102,-310) scale(1,1)"><path fill="none" stroke="#000000" d="M 412.10751711788413 687.6597122547371 L 402 692 L 412.2161407919912 696.0780469980388" stroke-miterlimit="10"/></g><g transform="translate(-102,-310) scale(1,1)"><g><path fill="none" stroke="none"/><text fill="#000000" stroke="none" font-family="Arial" font-size="13px" font-style="normal" font-weight="normal" text-decoration="none" x="668.5" y="708.5">Confirm Delete</text></g></g><g transform="translate(-102,-310) scale(1,1)"><path fill="none" stroke="#000000" d="M 605 424 L 622 527" stroke-miterlimit="10"/></g><g transform="translate(-102,-310) scale(1,1)"><path fill="none" stroke="#000000" d="M 616.1917276409146 517.6584812689432 L 622 527 L 624.4983824692238 516.2874799866009" stroke-miterlimit="10"/></g><g transform="translate(-102,-310) scale(1,1)"><g><path fill="none" stroke="none"/><text fill="#000000" stroke="none" font-family="Arial" font-size="13px" font-style="normal" font-weight="normal" text-decoration="none" x="569.5" y="478.5">Confirm Event Draft</text></g></g><g transform="translate(-102,-310) scale(1,1)"><path fill="none" stroke="#000000" d="M 575 546 L 487 545" stroke-miterlimit="10"/></g><g transform="translate(-102,-310) scale(1,1)"><path fill="none" stroke="#000000" d="M 497.20985109752246 540.9062314957464 L 487 545 L 497.1141864159287 549.3247234759974" stroke-miterlimit="10"/></g><g transform="translate(-102,-310) scale(1,1)"><g><path fill="none" stroke="none"/><text fill="#000000" stroke="none" font-family="Arial" font-size="13px" font-style="normal" font-weight="normal" text-decoration="none" x="446.5" y="523.5">Created by Organizer</text></g></g><g transform="translate(-102,-310) scale(1,1)"><path fill="none" stroke="#000000" d="M 463 535 L 416 496" stroke-miterlimit="10"/></g><g transform="translate(-102,-310) scale(1,1)"><path fill="none" stroke="#000000" d="M 426.5088874295995 499.25012076575723 L 416 496 L 421.1327231310537 505.729087997338" stroke-miterlimit="10"/></g><g transform="translate(-102,-310) scale(1,1)"><g><path fill="none" stroke="none"/><text fill="#000000" stroke="none" font-family="Arial" font-size="13px" font-style="normal" font-weight="normal" text-decoration="none" x="421.174072265625" y="532.5">No</text></g></g><g transform="translate(-102,-310) scale(1,1)"><path fill="none" stroke="#000000" d="M 463 555 L 409 599" stroke-miterlimit="10"/></g><g transform="translate(-102,-310) scale(1,1)"><path fill="none" stroke="#000000" d="M 414.21942259215473 589.3171477443625 L 409 599 L 419.53749959997964 595.8438786176022" stroke-miterlimit="10"/></g><g transform="translate(-102,-310) scale(1,1)"><g><path fill="none" stroke="none"/><text fill="#000000" stroke="none" font-family="Arial" font-size="13px" font-style="normal" font-weight="normal" text-decoration="none" x="434.435302734375" y="587.5">Yes</text></g></g><g transform="translate(-102,-310) scale(1,1)"><path fill="none" stroke="#000000" d="M 345 496 L 328 504 L 287 499" stroke-miterlimit="10"/></g><g transform="translate(-102,-310) scale(1,1)"><path fill="none" stroke="#000000" d="M 297.59751784462225 496.0516758093939 L 287 499 L 296.5783567599918 504.4087967033639" stroke-miterlimit="10"/></g><g transform="translate(-102,-310) scale(1,1)"><g><path fill="none" stroke="none"/><text fill="#000000" stroke="none" font-family="Arial" font-size="13px" font-style="normal" font-weight="normal" text-decoration="none" x="299.4072265625" y="515.5">Admin Verifies</text></g></g><g transform="translate(-102,-310) scale(1,1)"><path fill="none" stroke="#000000" d="M 270 487 L 256 456 L 220 454" stroke-miterlimit="10"/></g><g transform="translate(-102,-310) scale(1,1)"><path fill="none" stroke="#000000" d="M 230.38052996038275 450.3606871882736 L 220 454 L 229.9135258953276 458.7667603592659" stroke-miterlimit="10"/></g><g transform="translate(-102,-310) scale(1,1)"><g><path fill="none" stroke="none"/><text fill="#000000" stroke="none" font-family="Arial" font-size="13px" font-style="normal" font-weight="normal" text-decoration="none" x="240.792236328125" y="484.5">No</text></g></g><g transform="translate(-102,-310) scale(1,1)"><path fill="none" stroke="#000000" d="M 275 507 L 272 600 L 327 609" stroke-miterlimit="10"/></g><g transform="translate(-102,-310) scale(1,1)"><path fill="none" stroke="#000000" d="M 316.2909254939018 611.5131102687383 L 327 609 L 317.65050348361166 603.2045781094004" stroke-miterlimit="10"/></g><g transform="translate(-102,-310) scale(1,1)"><g><path fill="none" stroke="none"/><text fill="#000000" stroke="none" font-family="Arial" font-size="13px" font-style="normal" font-weight="normal" text-decoration="none" x="250.57666015625" y="523.5">Yes</text></g></g><g transform="translate(-102,-310) scale(1,1)"><path fill="none" stroke="#000000" d="M 385 640 L 387 679" stroke-miterlimit="10"/></g><g transform="translate(-102,-310) scale(1,1)"><path fill="none" stroke="#000000" d="M 382.27552767566414 669.066251399568 L 387 679 L 390.6835145799017 668.6350725839661" stroke-miterlimit="10"/></g><g transform="translate(-102,-310) scale(1,1)"><path fill="none" stroke="#000000" d="M 165 472 L 168 680 L 375 691" stroke-miterlimit="10"/></g><g transform="translate(-102,-310) scale(1,1)"><path fill="none" stroke="#000000" d="M 364.628264853519 694.6643021233587 L 375 691 L 365.0750228655093 686.2571286249955" stroke-miterlimit="10"/></g></g></svg>