<svg version="1.1" xmlns="http://www.w3.org/2000/svg" xmlns:xlink="http://www.w3.org/1999/xlink" width="961.103515625" height="427"><defs/><g><text fill="#eeeeee" stroke="none" font-family="Arial" font-size="24px" font-style="normal" font-weight="normal" text-decoration="none" x="0" y="0">UNREGISTERED</text><text fill="#eeeeee" stroke="none" font-family="Arial" font-size="24px" font-style="normal" font-weight="normal" text-decoration="none" x="0" y="30">UNREGISTERED</text><text fill="#eeeeee" stroke="none" font-family="Arial" font-size="24px" font-style="normal" font-weight="normal" text-decoration="none" x="0" y="60">UNREGISTERED</text><text fill="#eeeeee" stroke="none" font-family="Arial" font-size="24px" font-style="normal" font-weight="normal" text-decoration="none" x="0" y="90">UNREGISTERED</text><text fill="#eeeeee" stroke="none" font-family="Arial" font-size="24px" font-style="normal" font-weight="normal" text-decoration="none" x="0" y="120">UNREGISTERED</text><text fill="#eeeeee" stroke="none" font-family="Arial" font-size="24px" font-style="normal" font-weight="normal" text-decoration="none" x="0" y="150">UNREGISTERED</text><text fill="#eeeeee" stroke="none" font-family="Arial" font-size="24px" font-style="normal" font-weight="normal" text-decoration="none" x="0" y="180">UNREGISTERED</text><text fill="#eeeeee" stroke="none" font-family="Arial" font-size="24px" font-style="normal" font-weight="normal" text-decoration="none" x="0" y="210">UNREGISTERED</text><text fill="#eeeeee" stroke="none" font-family="Arial" font-size="24px" font-style="normal" font-weight="normal" text-decoration="none" x="0" y="240">UNREGISTERED</text><text fill="#eeeeee" stroke="none" font-family="Arial" font-size="24px" font-style="normal" font-weight="normal" text-decoration="none" x="0" y="270">UNREGISTERED</text><text fill="#eeeeee" stroke="none" font-family="Arial" font-size="24px" font-style="normal" font-weight="normal" text-decoration="none" x="0" y="300">UNREGISTERED</text><text fill="#eeeeee" stroke="none" font-family="Arial" font-size="24px" font-style="normal" font-weight="normal" text-decoration="none" x="0" y="330">UNREGISTERED</text><text fill="#eeeeee" stroke="none" font-family="Arial" font-size="24px" font-style="normal" font-weight="normal" text-decoration="none" x="0" y="360">UNREGISTERED</text><text fill="#eeeeee" stroke="none" font-family="Arial" font-size="24px" font-style="normal" font-weight="normal" text-decoration="none" x="0" y="390">UNREGISTERED</text><text fill="#eeeeee" stroke="none" font-family="Arial" font-size="24px" font-style="normal" font-weight="normal" text-decoration="none" x="0" y="420">UNREGISTERED</text><text fill="#eeeeee" stroke="none" font-family="Arial" font-size="24px" font-style="normal" font-weight="normal" text-decoration="none" x="200" y="0">UNREGISTERED</text><text fill="#eeeeee" stroke="none" font-family="Arial" font-size="24px" font-style="normal" font-weight="normal" text-decoration="none" x="200" y="30">UNREGISTERED</text><text fill="#eeeeee" stroke="none" font-family="Arial" font-size="24px" font-style="normal" font-weight="normal" text-decoration="none" x="200" y="60">UNREGISTERED</text><text fill="#eeeeee" stroke="none" font-family="Arial" font-size="24px" font-style="normal" font-weight="normal" text-decoration="none" x="200" y="90">UNREGISTERED</text><text fill="#eeeeee" stroke="none" font-family="Arial" font-size="24px" font-style="normal" font-weight="normal" text-decoration="none" x="200" y="120">UNREGISTERED</text><text fill="#eeeeee" stroke="none" font-family="Arial" font-size="24px" font-style="normal" font-weight="normal" text-decoration="none" x="200" y="150">UNREGISTERED</text><text fill="#eeeeee" stroke="none" font-family="Arial" font-size="24px" font-style="normal" font-weight="normal" text-decoration="none" x="200" y="180">UNREGISTERED</text><text fill="#eeeeee" stroke="none" font-family="Arial" font-size="24px" font-style="normal" font-weight="normal" text-decoration="none" x="200" y="210">UNREGISTERED</text><text fill="#eeeeee" stroke="none" font-family="Arial" font-size="24px" font-style="normal" font-weight="normal" text-decoration="none" x="200" y="240">UNREGISTERED</text><text fill="#eeeeee" stroke="none" font-family="Arial" font-size="24px" font-style="normal" font-weight="normal" text-decoration="none" x="200" y="270">UNREGISTERED</text><text fill="#eeeeee" stroke="none" font-family="Arial" font-size="24px" font-style="normal" font-weight="normal" text-decoration="none" x="200" y="300">UNREGISTERED</text><text fill="#eeeeee" stroke="none" font-family="Arial" font-size="24px" font-style="normal" font-weight="normal" text-decoration="none" x="200" y="330">UNREGISTERED</text><text fill="#eeeeee" stroke="none" font-family="Arial" font-size="24px" font-style="normal" font-weight="normal" text-decoration="none" x="200" y="360">UNREGISTERED</text><text fill="#eeeeee" stroke="none" font-family="Arial" font-size="24px" font-style="normal" font-weight="normal" text-decoration="none" x="200" y="390">UNREGISTERED</text><text fill="#eeeeee" stroke="none" font-family="Arial" font-size="24px" font-style="normal" font-weight="normal" text-decoration="none" x="200" y="420">UNREGISTERED</text><text fill="#eeeeee" stroke="none" font-family="Arial" font-size="24px" font-style="normal" font-weight="normal" text-decoration="none" x="400" y="0">UNREGISTERED</text><text fill="#eeeeee" stroke="none" font-family="Arial" font-size="24px" font-style="normal" font-weight="normal" text-decoration="none" x="400" y="30">UNREGISTERED</text><text fill="#eeeeee" stroke="none" font-family="Arial" font-size="24px" font-style="normal" font-weight="normal" text-decoration="none" x="400" y="60">UNREGISTERED</text><text fill="#eeeeee" stroke="none" font-family="Arial" font-size="24px" font-style="normal" font-weight="normal" text-decoration="none" x="400" y="90">UNREGISTERED</text><text fill="#eeeeee" stroke="none" font-family="Arial" font-size="24px" font-style="normal" font-weight="normal" text-decoration="none" x="400" y="120">UNREGISTERED</text><text fill="#eeeeee" stroke="none" font-family="Arial" font-size="24px" font-style="normal" font-weight="normal" text-decoration="none" x="400" y="150">UNREGISTERED</text><text fill="#eeeeee" stroke="none" font-family="Arial" font-size="24px" font-style="normal" font-weight="normal" text-decoration="none" x="400" y="180">UNREGISTERED</text><text fill="#eeeeee" stroke="none" font-family="Arial" font-size="24px" font-style="normal" font-weight="normal" text-decoration="none" x="400" y="210">UNREGISTERED</text><text fill="#eeeeee" stroke="none" font-family="Arial" font-size="24px" font-style="normal" font-weight="normal" text-decoration="none" x="400" y="240">UNREGISTERED</text><text fill="#eeeeee" stroke="none" font-family="Arial" font-size="24px" font-style="normal" font-weight="normal" text-decoration="none" x="400" y="270">UNREGISTERED</text><text fill="#eeeeee" stroke="none" font-family="Arial" font-size="24px" font-style="normal" font-weight="normal" text-decoration="none" x="400" y="300">UNREGISTERED</text><text fill="#eeeeee" stroke="none" font-family="Arial" font-size="24px" font-style="normal" font-weight="normal" text-decoration="none" x="400" y="330">UNREGISTERED</text><text fill="#eeeeee" stroke="none" font-family="Arial" font-size="24px" font-style="normal" font-weight="normal" text-decoration="none" x="400" y="360">UNREGISTERED</text><text fill="#eeeeee" stroke="none" font-family="Arial" font-size="24px" font-style="normal" font-weight="normal" text-decoration="none" x="400" y="390">UNREGISTERED</text><text fill="#eeeeee" stroke="none" font-family="Arial" font-size="24px" font-style="normal" font-weight="normal" text-decoration="none" x="400" y="420">UNREGISTERED</text><text fill="#eeeeee" stroke="none" font-family="Arial" font-size="24px" font-style="normal" font-weight="normal" text-decoration="none" x="600" y="0">UNREGISTERED</text><text fill="#eeeeee" stroke="none" font-family="Arial" font-size="24px" font-style="normal" font-weight="normal" text-decoration="none" x="600" y="30">UNREGISTERED</text><text fill="#eeeeee" stroke="none" font-family="Arial" font-size="24px" font-style="normal" font-weight="normal" text-decoration="none" x="600" y="60">UNREGISTERED</text><text fill="#eeeeee" stroke="none" font-family="Arial" font-size="24px" font-style="normal" font-weight="normal" text-decoration="none" x="600" y="90">UNREGISTERED</text><text fill="#eeeeee" stroke="none" font-family="Arial" font-size="24px" font-style="normal" font-weight="normal" text-decoration="none" x="600" y="120">UNREGISTERED</text><text fill="#eeeeee" stroke="none" font-family="Arial" font-size="24px" font-style="normal" font-weight="normal" text-decoration="none" x="600" y="150">UNREGISTERED</text><text fill="#eeeeee" stroke="none" font-family="Arial" font-size="24px" font-style="normal" font-weight="normal" text-decoration="none" x="600" y="180">UNREGISTERED</text><text fill="#eeeeee" stroke="none" font-family="Arial" font-size="24px" font-style="normal" font-weight="normal" text-decoration="none" x="600" y="210">UNREGISTERED</text><text fill="#eeeeee" stroke="none" font-family="Arial" font-size="24px" font-style="normal" font-weight="normal" text-decoration="none" x="600" y="240">UNREGISTERED</text><text fill="#eeeeee" stroke="none" font-family="Arial" font-size="24px" font-style="normal" font-weight="normal" text-decoration="none" x="600" y="270">UNREGISTERED</text><text fill="#eeeeee" stroke="none" font-family="Arial" font-size="24px" font-style="normal" font-weight="normal" text-decoration="none" x="600" y="300">UNREGISTERED</text><text fill="#eeeeee" stroke="none" font-family="Arial" font-size="24px" font-style="normal" font-weight="normal" text-decoration="none" x="600" y="330">UNREGISTERED</text><text fill="#eeeeee" stroke="none" font-family="Arial" font-size="24px" font-style="normal" font-weight="normal" text-decoration="none" x="600" y="360">UNREGISTERED</text><text fill="#eeeeee" stroke="none" font-family="Arial" font-size="24px" font-style="normal" font-weight="normal" text-decoration="none" x="600" y="390">UNREGISTERED</text><text fill="#eeeeee" stroke="none" font-family="Arial" font-size="24px" font-style="normal" font-weight="normal" text-decoration="none" x="600" y="420">UNREGISTERED</text><text fill="#eeeeee" stroke="none" font-family="Arial" font-size="24px" font-style="normal" font-weight="normal" text-decoration="none" x="800" y="0">UNREGISTERED</text><text fill="#eeeeee" stroke="none" font-family="Arial" font-size="24px" font-style="normal" font-weight="normal" text-decoration="none" x="800" y="30">UNREGISTERED</text><text fill="#eeeeee" stroke="none" font-family="Arial" font-size="24px" font-style="normal" font-weight="normal" text-decoration="none" x="800" y="60">UNREGISTERED</text><text fill="#eeeeee" stroke="none" font-family="Arial" font-size="24px" font-style="normal" font-weight="normal" text-decoration="none" x="800" y="90">UNREGISTERED</text><text fill="#eeeeee" stroke="none" font-family="Arial" font-size="24px" font-style="normal" font-weight="normal" text-decoration="none" x="800" y="120">UNREGISTERED</text><text fill="#eeeeee" stroke="none" font-family="Arial" font-size="24px" font-style="normal" font-weight="normal" text-decoration="none" x="800" y="150">UNREGISTERED</text><text fill="#eeeeee" stroke="none" font-family="Arial" font-size="24px" font-style="normal" font-weight="normal" text-decoration="none" x="800" y="180">UNREGISTERED</text><text fill="#eeeeee" stroke="none" font-family="Arial" font-size="24px" font-style="normal" font-weight="normal" text-decoration="none" x="800" y="210">UNREGISTERED</text><text fill="#eeeeee" stroke="none" font-family="Arial" font-size="24px" font-style="normal" font-weight="normal" text-decoration="none" x="800" y="240">UNREGISTERED</text><text fill="#eeeeee" stroke="none" font-family="Arial" font-size="24px" font-style="normal" font-weight="normal" text-decoration="none" x="800" y="270">UNREGISTERED</text><text fill="#eeeeee" stroke="none" font-family="Arial" font-size="24px" font-style="normal" font-weight="normal" text-decoration="none" x="800" y="300">UNREGISTERED</text><text fill="#eeeeee" stroke="none" font-family="Arial" font-size="24px" font-style="normal" font-weight="normal" text-decoration="none" x="800" y="330">UNREGISTERED</text><text fill="#eeeeee" stroke="none" font-family="Arial" font-size="24px" font-style="normal" font-weight="normal" text-decoration="none" x="800" y="360">UNREGISTERED</text><text fill="#eeeeee" stroke="none" font-family="Arial" font-size="24px" font-style="normal" font-weight="normal" text-decoration="none" x="800" y="390">UNREGISTERED</text><text fill="#eeeeee" stroke="none" font-family="Arial" font-size="24px" font-style="normal" font-weight="normal" text-decoration="none" x="800" y="420">UNREGISTERED</text><g transform="translate(-1182,-94) scale(1,1)"><path fill="#C0C0C0" stroke="none" d="M 1577 175 L 1701 175 Q 1711 175 1711 185 L 1711 204 Q 1711 214 1701 214 L 1577 214 Q 1567 214 1567 204 L 1567 185 Q 1567 175 1577 175 Z" opacity="0.2"/></g><g transform="translate(-1182,-94) scale(1,1)"><path fill="#ffffff" stroke="none" d="M 1570 168 L 1694 168 Q 1704 168 1704 178 L 1704 197 Q 1704 207 1694 207 L 1570 207 Q 1560 207 1560 197 L 1560 178 Q 1560 168 1570 168 Z"/></g><g transform="translate(-1182,-94) scale(1,1)"><path fill="none" stroke="#000000" d="M 1570 168 L 1694 168 Q 1704 168 1704 178 L 1704 197 Q 1704 207 1694 207 L 1570 207 Q 1560 207 1560 197 L 1560 178 Q 1560 168 1570 168 Z" stroke-miterlimit="10"/></g><g transform="translate(-1182,-94) scale(1,1)"><g><path fill="none" stroke="none"/><text fill="#000000" stroke="none" font-family="Arial" font-size="13px" font-style="normal" font-weight="bold" text-decoration="none" x="1578.64794921875" y="187.5">Viewing All Events</text></g></g><g transform="translate(-1182,-94) scale(1,1)"><path fill="#C0C0C0" stroke="none" d="M 1631 120.5 C 1631 115.2532944 1635.2532944 111 1640.5 111 C 1645.7467056 111 1650 115.2532944 1650 120.5 C 1650 125.7467056 1645.7467056 130 1640.5 130 C 1635.2532944 130 1631 125.7467056 1631 120.5 Z" opacity="0.2"/></g><g transform="translate(-1182,-94) scale(1,1)"><path fill="#000000" stroke="none" d="M 1624 113.5 C 1624 108.2532944 1628.2532944 104 1633.5 104 C 1638.7467056 104 1643 108.2532944 1643 113.5 C 1643 118.7467056 1638.7467056 123 1633.5 123 C 1628.2532944 123 1624 118.7467056 1624 113.5 Z"/></g><g transform="translate(-1182,-94) scale(1,1)"><path fill="#C0C0C0" stroke="none" d="M 1633 471 L 1701 471 Q 1711 471 1711 481 L 1711 501 Q 1711 511 1701 511 L 1633 511 Q 1623 511 1623 501 L 1623 481 Q 1623 471 1633 471 Z" opacity="0.2"/></g><g transform="translate(-1182,-94) scale(1,1)"><path fill="#ffffff" stroke="none" d="M 1626 464 L 1694 464 Q 1704 464 1704 474 L 1704 494 Q 1704 504 1694 504 L 1626 504 Q 1616 504 1616 494 L 1616 474 Q 1616 464 1626 464 Z"/></g><g transform="translate(-1182,-94) scale(1,1)"><path fill="none" stroke="#000000" d="M 1626 464 L 1694 464 Q 1704 464 1704 474 L 1704 494 Q 1704 504 1694 504 L 1626 504 Q 1616 504 1616 494 L 1616 474 Q 1616 464 1626 464 Z" stroke-miterlimit="10"/></g><g transform="translate(-1182,-94) scale(1,1)"><g><path fill="none" stroke="none"/><text fill="#000000" stroke="none" font-family="Arial" font-size="13px" font-style="normal" font-weight="bold" text-decoration="none" x="1627.128662109375" y="483.5">Filter Event</text></g></g><g transform="translate(-1182,-94) scale(1,1)"><path fill="none" stroke="#000000" d="M 1632 123 L 1632 155 L 1640 155 L 1640 168" stroke-miterlimit="10"/></g><g transform="translate(-1182,-94) scale(1,1)"><path fill="none" stroke="#000000" d="M 1635.7904822439841 157.83732514237585 L 1640 168 L 1644.2095177560159 157.83732514237585" stroke-miterlimit="10"/></g><g transform="translate(-1182,-94) scale(1,1)"><path fill="none" stroke="#000000" d="M 1634 208 L 1658 463" stroke-miterlimit="10"/></g><g transform="translate(-1182,-94) scale(1,1)"><path fill="none" stroke="#000000" d="M 1652.8567248775746 453.2764861796242 L 1658 463 L 1661.2387178427737 452.487592724076" stroke-miterlimit="10"/></g><g transform="translate(-1182,-94) scale(1,1)"><g><path fill="none" stroke="none"/><text fill="#000000" stroke="none" font-family="Arial" font-size="13px" font-style="normal" font-weight="normal" text-decoration="none" x="1536.29638671875" y="339.5">Click Select Filter</text></g></g><g transform="translate(-1182,-94) scale(1,1)"><path fill="#C0C0C0" stroke="none" d="M 1225 263 L 1293 263 Q 1303 263 1303 273 L 1303 293 Q 1303 303 1293 303 L 1225 303 Q 1215 303 1215 293 L 1215 273 Q 1215 263 1225 263 Z" opacity="0.2"/></g><g transform="translate(-1182,-94) scale(1,1)"><path fill="#ffffff" stroke="none" d="M 1218 256 L 1286 256 Q 1296 256 1296 266 L 1296 286 Q 1296 296 1286 296 L 1218 296 Q 1208 296 1208 286 L 1208 266 Q 1208 256 1218 256 Z"/></g><g transform="translate(-1182,-94) scale(1,1)"><path fill="none" stroke="#000000" d="M 1218 256 L 1286 256 Q 1296 256 1296 266 L 1296 286 Q 1296 296 1286 296 L 1218 296 Q 1208 296 1208 286 L 1208 266 Q 1208 256 1218 256 Z" stroke-miterlimit="10"/></g><g transform="translate(-1182,-94) scale(1,1)"><g><path fill="none" stroke="none"/><text fill="#000000" stroke="none" font-family="Arial" font-size="13px" font-style="normal" font-weight="bold" text-decoration="none" x="1216.602294921875" y="275.5">Filter by text</text></g></g><g transform="translate(-1182,-94) scale(1,1)"><path fill="#C0C0C0" stroke="none" d="M 1225 407 L 1322.3671875 407 Q 1332.3671875 407 1332.3671875 417 L 1332.3671875 436 Q 1332.3671875 446 1322.3671875 446 L 1225 446 Q 1215 446 1215 436 L 1215 417 Q 1215 407 1225 407 Z" opacity="0.2"/></g><g transform="translate(-1182,-94) scale(1,1)"><path fill="#ffffff" stroke="none" d="M 1218 400 L 1315.3671875 400 Q 1325.3671875 400 1325.3671875 410 L 1325.3671875 429 Q 1325.3671875 439 1315.3671875 439 L 1218 439 Q 1208 439 1208 429 L 1208 410 Q 1208 400 1218 400 Z"/></g><g transform="translate(-1182,-94) scale(1,1)"><path fill="none" stroke="#000000" d="M 1218 400 L 1315.3671875 400 Q 1325.3671875 400 1325.3671875 410 L 1325.3671875 429 Q 1325.3671875 439 1315.3671875 439 L 1218 439 Q 1208 439 1208 429 L 1208 410 Q 1208 400 1218 400 Z" stroke-miterlimit="10"/></g><g transform="translate(-1182,-94) scale(1,1)"><g><path fill="none" stroke="none"/><text fill="#000000" stroke="none" font-family="Arial" font-size="13px" font-style="normal" font-weight="bold" text-decoration="none" x="1216.832275390625" y="419.5">Filter by category</text></g></g><g transform="translate(-1182,-94) scale(1,1)"><path fill="#C0C0C0" stroke="none" d="M 2001 479 L 2077.89599609375 479 Q 2087.89599609375 479 2087.89599609375 489 L 2087.89599609375 508 Q 2087.89599609375 518 2077.89599609375 518 L 2001 518 Q 1991 518 1991 508 L 1991 489 Q 1991 479 2001 479 Z" opacity="0.2"/></g><g transform="translate(-1182,-94) scale(1,1)"><path fill="#ffffff" stroke="none" d="M 1994 472 L 2070.89599609375 472 Q 2080.89599609375 472 2080.89599609375 482 L 2080.89599609375 501 Q 2080.89599609375 511 2070.89599609375 511 L 1994 511 Q 1984 511 1984 501 L 1984 482 Q 1984 472 1994 472 Z"/></g><g transform="translate(-1182,-94) scale(1,1)"><path fill="none" stroke="#000000" d="M 1994 472 L 2070.89599609375 472 Q 2080.89599609375 472 2080.89599609375 482 L 2080.89599609375 501 Q 2080.89599609375 511 2070.89599609375 511 L 1994 511 Q 1984 511 1984 501 L 1984 482 Q 1984 472 1994 472 Z" stroke-miterlimit="10"/></g><g transform="translate(-1182,-94) scale(1,1)"><g><path fill="none" stroke="none"/><text fill="#000000" stroke="none" font-family="Arial" font-size="13px" font-style="normal" font-weight="bold" text-decoration="none" x="1991.518310546875" y="491.5">Filter by  Time</text></g></g><g transform="translate(-1182,-94) scale(1,1)"><path fill="#C0C0C0" stroke="none" d="M 1993 279 L 2130.103515625 279 Q 2140.103515625 279 2140.103515625 289 L 2140.103515625 308 Q 2140.103515625 318 2130.103515625 318 L 1993 318 Q 1983 318 1983 308 L 1983 289 Q 1983 279 1993 279 Z" opacity="0.2"/></g><g transform="translate(-1182,-94) scale(1,1)"><path fill="#ffffff" stroke="none" d="M 1986 272 L 2123.103515625 272 Q 2133.103515625 272 2133.103515625 282 L 2133.103515625 301 Q 2133.103515625 311 2123.103515625 311 L 1986 311 Q 1976 311 1976 301 L 1976 282 Q 1976 272 1986 272 Z"/></g><g transform="translate(-1182,-94) scale(1,1)"><path fill="none" stroke="#000000" d="M 1986 272 L 2123.103515625 272 Q 2133.103515625 272 2133.103515625 282 L 2133.103515625 301 Q 2133.103515625 311 2123.103515625 311 L 1986 311 Q 1976 311 1976 301 L 1976 282 Q 1976 272 1986 272 Z" stroke-miterlimit="10"/></g><g transform="translate(-1182,-94) scale(1,1)"><g><path fill="none" stroke="none"/><text fill="#000000" stroke="none" font-family="Arial" font-size="13px" font-style="normal" font-weight="bold" text-decoration="none" x="1986.996826171875" y="291.5">Filter by User Schedule</text></g></g><g transform="translate(-1182,-94) scale(1,1)"><path fill="none" stroke="#000000" d="M 1619 463 L 1293 297" stroke-miterlimit="10"/></g><g transform="translate(-1182,-94) scale(1,1)"><path fill="none" stroke="#000000" d="M 1303.9663116458858 297.86023769116923 L 1293 297 L 1300.146073424553 305.3626332342689" stroke-miterlimit="10"/></g><g transform="translate(-1182,-94) scale(1,1)"><g><path fill="none" stroke="none"/><text fill="#000000" stroke="none" font-family="Arial" font-size="13px" font-style="normal" font-weight="normal" text-decoration="none" x="1335.5" y="298.5">Pick Text Filter</text></g></g><g transform="translate(-1182,-94) scale(1,1)"><path fill="none" stroke="#000000" d="M 1615 477 L 1326 429" stroke-miterlimit="10"/></g><g transform="translate(-1182,-94) scale(1,1)"><path fill="none" stroke="#000000" d="M 1336.7150469567603 426.5124773941882 L 1326 429 L 1335.3356264667818 434.81773826093297" stroke-miterlimit="10"/></g><g transform="translate(-1182,-94) scale(1,1)"><g><path fill="none" stroke="none"/><text fill="#000000" stroke="none" font-family="Arial" font-size="13px" font-style="normal" font-weight="normal" text-decoration="none" x="1417.7900390625" y="489.5">Pick Category Filter</text></g></g><g transform="translate(-1182,-94) scale(1,1)"><path fill="none" stroke="#000000" d="M 1705 485 L 1983 490" stroke-miterlimit="10"/></g><g transform="translate(-1182,-94) scale(1,1)"><path fill="none" stroke="#000000" d="M 1972.7632699575797 494.0260847033576 L 1983 490 L 1972.914666974453 485.60841056520417" stroke-miterlimit="10"/></g><g transform="translate(-1182,-94) scale(1,1)"><g><path fill="none" stroke="none"/><text fill="#000000" stroke="none" font-family="Arial" font-size="13px" font-style="normal" font-weight="normal" text-decoration="none" x="1811.5" y="472.5">Pick Time Filter</text></g></g><g transform="translate(-1182,-94) scale(1,1)"><path fill="none" stroke="#000000" d="M 1669 463 L 1752 280 L 1975 288" stroke-miterlimit="10"/></g><g transform="translate(-1182,-94) scale(1,1)"><path fill="none" stroke="#000000" d="M 1964.6929413853672 291.84246570765765 L 1975 288 L 1964.9947754011446 283.42884251786745" stroke-miterlimit="10"/></g><g transform="translate(-1182,-94) scale(1,1)"><g><path fill="none" stroke="none"/><text fill="#000000" stroke="none" font-family="Arial" font-size="13px" font-style="normal" font-weight="normal" text-decoration="none" x="1822.5" y="276.5">Pick Schedule Filter</text></g></g><g transform="translate(-1182,-94) scale(1,1)"><path fill="#C0C0C0" stroke="none" d="M 1361 175 L 1400 175 Q 1410 175 1410 185 L 1410 204 Q 1410 214 1400 214 L 1361 214 Q 1351 214 1351 204 L 1351 185 Q 1351 175 1361 175 Z" opacity="0.2"/></g><g transform="translate(-1182,-94) scale(1,1)"><path fill="#ffffff" stroke="none" d="M 1354 168 L 1393 168 Q 1403 168 1403 178 L 1403 197 Q 1403 207 1393 207 L 1354 207 Q 1344 207 1344 197 L 1344 178 Q 1344 168 1354 168 Z"/></g><g transform="translate(-1182,-94) scale(1,1)"><path fill="none" stroke="#000000" d="M 1354 168 L 1393 168 Q 1403 168 1403 178 L 1403 197 Q 1403 207 1393 207 L 1354 207 Q 1344 207 1344 197 L 1344 178 Q 1344 168 1354 168 Z" stroke-miterlimit="10"/></g><g transform="translate(-1182,-94) scale(1,1)"><g><path fill="none" stroke="none"/><text fill="#000000" stroke="none" font-family="Arial" font-size="13px" font-style="normal" font-weight="bold" text-decoration="none" x="1353.619140625" y="187.5">Logout</text></g></g><g transform="translate(-1182,-94) scale(1,1)"><path fill="#C0C0C0" stroke="none" d="M 1255 195.5 C 1255 188.59644 1260.59644 183 1267.5 183 C 1274.40356 183 1280 188.59644 1280 195.5 C 1280 202.40356 1274.40356 208 1267.5 208 C 1260.59644 208 1255 202.40356 1255 195.5 Z" opacity="0.2"/></g><g transform="translate(-1182,-94) scale(1,1)"><path fill="none" stroke="#000000" d="M 1248 188.5 C 1248 181.59644 1253.59644 176 1260.5 176 C 1267.40356 176 1273 181.59644 1273 188.5 C 1273 195.40356 1267.40356 201 1260.5 201 C 1253.59644 201 1248 195.40356 1248 188.5 Z" stroke-miterlimit="10"/></g><g transform="translate(-1182,-94) scale(1,1)"><path fill="#000000" stroke="none" d="M 1253 188.5 C 1253 184.357864 1256.357864 181 1260.5 181 C 1264.642136 181 1268 184.357864 1268 188.5 C 1268 192.642136 1264.642136 196 1260.5 196 C 1256.357864 196 1253 192.642136 1253 188.5 Z"/></g><g transform="translate(-1182,-94) scale(1,1)"><path fill="none" stroke="#000000" d="M 1343 187 L 1274 188" stroke-miterlimit="10"/></g><g transform="translate(-1182,-94) scale(1,1)"><path fill="none" stroke="#000000" d="M 1284.1006066443656 183.6436545802936 L 1274 188 L 1284.2226088397942 192.0618060648635" stroke-miterlimit="10"/></g><g transform="translate(-1182,-94) scale(1,1)"><path fill="none" stroke="#000000" d="M 1559 187 L 1404 187" stroke-miterlimit="10"/></g><g transform="translate(-1182,-94) scale(1,1)"><path fill="none" stroke="#000000" d="M 1414.162674857624 182.790482243984 L 1404 187 L 1414.162674857624 191.209517756016" stroke-miterlimit="10"/></g><g transform="translate(-1182,-94) scale(1,1)"><g><path fill="none" stroke="none"/><text fill="#000000" stroke="none" font-family="Arial" font-size="13px" font-style="normal" font-weight="normal" text-decoration="none" x="1463.5" y="164.5">Click Logout</text></g></g><g transform="translate(-1182,-94) scale(1,1)"><path fill="none" stroke="#000000" d="M 1297 265 L 1559 204" stroke-miterlimit="10"/></g><g transform="translate(-1182,-94) scale(1,1)"><path fill="none" stroke="#000000" d="M 1550.056603208762 210.40434647988965 L 1559 204 L 1548.1475066570754 202.20462030707182" stroke-miterlimit="10"/></g><g transform="translate(-1182,-94) scale(1,1)"><g><path fill="none" stroke="none"/><text fill="#000000" stroke="none" font-family="Arial" font-size="13px" font-style="normal" font-weight="normal" text-decoration="none" x="1277.5" y="243.5">Clear Text Filter</text></g></g><g transform="translate(-1182,-94) scale(1,1)"><path fill="none" stroke="#000000" d="M 1298 399 L 1599 208" stroke-miterlimit="10"/></g><g transform="translate(-1182,-94) scale(1,1)"><path fill="none" stroke="#000000" d="M 1592.6745072171589 216.99934114556302 L 1599 208 L 1588.1637060086678 209.8906963091451" stroke-miterlimit="10"/></g><g transform="translate(-1182,-94) scale(1,1)"><g><path fill="none" stroke="none"/><text fill="#000000" stroke="none" font-family="Arial" font-size="13px" font-style="normal" font-weight="normal" text-decoration="none" x="1191.5" y="379.5">Clear Category Filter</text></g></g><g transform="translate(-1182,-94) scale(1,1)"><path fill="none" stroke="#000000" d="M 2006 471 L 1792 304 L 1661 208" stroke-miterlimit="10"/></g><g transform="translate(-1182,-94) scale(1,1)"><path fill="none" stroke="#000000" d="M 1671.6854527269766 210.61172357257612 L 1661 208 L 1666.70898863454 217.40252353204673" stroke-miterlimit="10"/></g><g transform="translate(-1182,-94) scale(1,1)"><g><path fill="none" stroke="none"/><text fill="#000000" stroke="none" font-family="Arial" font-size="13px" font-style="normal" font-weight="normal" text-decoration="none" x="1721.5" y="380.5">Clear Time Filter</text></g></g><g transform="translate(-1182,-94) scale(1,1)"><path fill="none" stroke="#000000" d="M 2042 271 L 2000 200 L 1705 190" stroke-miterlimit="10"/></g><g transform="translate(-1182,-94) scale(1,1)"><path fill="none" stroke="#000000" d="M 1715.2994545474385 186.1371984227445 L 1705 190 L 1715.0142273426718 194.55140096336095" stroke-miterlimit="10"/></g><g transform="translate(-1182,-94) scale(1,1)"><g><path fill="none" stroke="none"/><text fill="#000000" stroke="none" font-family="Arial" font-size="13px" font-style="normal" font-weight="normal" text-decoration="none" x="1879.5" y="186.5">Clear Schedule Filter</text></g></g></g></svg>