<svg version="1.1" xmlns="http://www.w3.org/2000/svg" xmlns:xlink="http://www.w3.org/1999/xlink" width="555.11181640625" height="260"><defs/><g><text fill="#eeeeee" stroke="none" font-family="Arial" font-size="24px" font-style="normal" font-weight="normal" text-decoration="none" x="0" y="0">UNREGISTERED</text><text fill="#eeeeee" stroke="none" font-family="Arial" font-size="24px" font-style="normal" font-weight="normal" text-decoration="none" x="0" y="30">UNREGISTERED</text><text fill="#eeeeee" stroke="none" font-family="Arial" font-size="24px" font-style="normal" font-weight="normal" text-decoration="none" x="0" y="60">UNREGISTERED</text><text fill="#eeeeee" stroke="none" font-family="Arial" font-size="24px" font-style="normal" font-weight="normal" text-decoration="none" x="0" y="90">UNREGISTERED</text><text fill="#eeeeee" stroke="none" font-family="Arial" font-size="24px" font-style="normal" font-weight="normal" text-decoration="none" x="0" y="120">UNREGISTERED</text><text fill="#eeeeee" stroke="none" font-family="Arial" font-size="24px" font-style="normal" font-weight="normal" text-decoration="none" x="0" y="150">UNREGISTERED</text><text fill="#eeeeee" stroke="none" font-family="Arial" font-size="24px" font-style="normal" font-weight="normal" text-decoration="none" x="0" y="180">UNREGISTERED</text><text fill="#eeeeee" stroke="none" font-family="Arial" font-size="24px" font-style="normal" font-weight="normal" text-decoration="none" x="0" y="210">UNREGISTERED</text><text fill="#eeeeee" stroke="none" font-family="Arial" font-size="24px" font-style="normal" font-weight="normal" text-decoration="none" x="0" y="240">UNREGISTERED</text><text fill="#eeeeee" stroke="none" font-family="Arial" font-size="24px" font-style="normal" font-weight="normal" text-decoration="none" x="200" y="0">UNREGISTERED</text><text fill="#eeeeee" stroke="none" font-family="Arial" font-size="24px" font-style="normal" font-weight="normal" text-decoration="none" x="200" y="30">UNREGISTERED</text><text fill="#eeeeee" stroke="none" font-family="Arial" font-size="24px" font-style="normal" font-weight="normal" text-decoration="none" x="200" y="60">UNREGISTERED</text><text fill="#eeeeee" stroke="none" font-family="Arial" font-size="24px" font-style="normal" font-weight="normal" text-decoration="none" x="200" y="90">UNREGISTERED</text><text fill="#eeeeee" stroke="none" font-family="Arial" font-size="24px" font-style="normal" font-weight="normal" text-decoration="none" x="200" y="120">UNREGISTERED</text><text fill="#eeeeee" stroke="none" font-family="Arial" font-size="24px" font-style="normal" font-weight="normal" text-decoration="none" x="200" y="150">UNREGISTERED</text><text fill="#eeeeee" stroke="none" font-family="Arial" font-size="24px" font-style="normal" font-weight="normal" text-decoration="none" x="200" y="180">UNREGISTERED</text><text fill="#eeeeee" stroke="none" font-family="Arial" font-size="24px" font-style="normal" font-weight="normal" text-decoration="none" x="200" y="210">UNREGISTERED</text><text fill="#eeeeee" stroke="none" font-family="Arial" font-size="24px" font-style="normal" font-weight="normal" text-decoration="none" x="200" y="240">UNREGISTERED</text><text fill="#eeeeee" stroke="none" font-family="Arial" font-size="24px" font-style="normal" font-weight="normal" text-decoration="none" x="400" y="0">UNREGISTERED</text><text fill="#eeeeee" stroke="none" font-family="Arial" font-size="24px" font-style="normal" font-weight="normal" text-decoration="none" x="400" y="30">UNREGISTERED</text><text fill="#eeeeee" stroke="none" font-family="Arial" font-size="24px" font-style="normal" font-weight="normal" text-decoration="none" x="400" y="60">UNREGISTERED</text><text fill="#eeeeee" stroke="none" font-family="Arial" font-size="24px" font-style="normal" font-weight="normal" text-decoration="none" x="400" y="90">UNREGISTERED</text><text fill="#eeeeee" stroke="none" font-family="Arial" font-size="24px" font-style="normal" font-weight="normal" text-decoration="none" x="400" y="120">UNREGISTERED</text><text fill="#eeeeee" stroke="none" font-family="Arial" font-size="24px" font-style="normal" font-weight="normal" text-decoration="none" x="400" y="150">UNREGISTERED</text><text fill="#eeeeee" stroke="none" font-family="Arial" font-size="24px" font-style="normal" font-weight="normal" text-decoration="none" x="400" y="180">UNREGISTERED</text><text fill="#eeeeee" stroke="none" font-family="Arial" font-size="24px" font-style="normal" font-weight="normal" text-decoration="none" x="400" y="210">UNREGISTERED</text><text fill="#eeeeee" stroke="none" font-family="Arial" font-size="24px" font-style="normal" font-weight="normal" text-decoration="none" x="400" y="240">UNREGISTERED</text><g transform="translate(-38,-253) scale(1,1)"><path fill="#C0C0C0" stroke="none" d="M 105 271 L 191.02392578125 271 Q 201.02392578125 271 201.02392578125 281 L 201.02392578125 300 Q 201.02392578125 310 191.02392578125 310 L 105 310 Q 95 310 95 300 L 95 281 Q 95 271 105 271 Z" opacity="0.2"/></g><g transform="translate(-38,-253) scale(1,1)"><path fill="#ffffff" stroke="none" d="M 98 264 L 184.02392578125 264 Q 194.02392578125 264 194.02392578125 274 L 194.02392578125 293 Q 194.02392578125 303 184.02392578125 303 L 98 303 Q 88 303 88 293 L 88 274 Q 88 264 98 264 Z"/></g><g transform="translate(-38,-253) scale(1,1)"><path fill="none" stroke="#000000" d="M 98 264 L 184.02392578125 264 Q 194.02392578125 264 194.02392578125 274 L 194.02392578125 293 Q 194.02392578125 303 184.02392578125 303 L 98 303 Q 88 303 88 293 L 88 274 Q 88 264 98 264 Z" stroke-miterlimit="10"/></g><g transform="translate(-38,-253) scale(1,1)"><g><path fill="none" stroke="none"/><text fill="#000000" stroke="none" font-family="Arial" font-size="13px" font-style="normal" font-weight="bold" text-decoration="none" x="95.73095703125" y="283.5">Watching Event</text></g></g><g transform="translate(-38,-253) scale(1,1)"><path fill="#C0C0C0" stroke="none" d="M 425 271 L 580.11181640625 271 Q 590.11181640625 271 590.11181640625 281 L 590.11181640625 300 Q 590.11181640625 310 580.11181640625 310 L 425 310 Q 415 310 415 300 L 415 281 Q 415 271 425 271 Z" opacity="0.2"/></g><g transform="translate(-38,-253) scale(1,1)"><path fill="#ffffff" stroke="none" d="M 418 264 L 573.11181640625 264 Q 583.11181640625 264 583.11181640625 274 L 583.11181640625 293 Q 583.11181640625 303 573.11181640625 303 L 418 303 Q 408 303 408 293 L 408 274 Q 408 264 418 264 Z"/></g><g transform="translate(-38,-253) scale(1,1)"><path fill="none" stroke="#000000" d="M 418 264 L 573.11181640625 264 Q 583.11181640625 264 583.11181640625 274 L 583.11181640625 293 Q 583.11181640625 303 573.11181640625 303 L 418 303 Q 408 303 408 293 L 408 274 Q 408 264 418 264 Z" stroke-miterlimit="10"/></g><g transform="translate(-38,-253) scale(1,1)"><g><path fill="none" stroke="none"/><text fill="#000000" stroke="none" font-family="Arial" font-size="13px" font-style="normal" font-weight="bold" text-decoration="none" x="418.2255859375" y="283.5">Send Changed Notification</text></g></g><g transform="translate(-38,-253) scale(1,1)"><path fill="none" stroke="#000000" d="M 195 283 L 407 283" stroke-miterlimit="10"/></g><g transform="translate(-38,-253) scale(1,1)"><path fill="none" stroke="#000000" d="M 396.83732514237585 287.209517756016 L 407 283 L 396.83732514237585 278.790482243984" stroke-miterlimit="10"/></g><g transform="translate(-38,-253) scale(1,1)"><g><path fill="none" stroke="none"/><text fill="#000000" stroke="none" font-family="Arial" font-size="13px" font-style="normal" font-weight="normal" text-decoration="none" x="221.035888671875" y="275.5">Event information Changed</text></g></g><g transform="translate(-38,-253) scale(1,1)"><path fill="#C0C0C0" stroke="none" d="M 65 471 L 224.4599609375 471 Q 234.4599609375 471 234.4599609375 481 L 234.4599609375 500 Q 234.4599609375 510 224.4599609375 510 L 65 510 Q 55 510 55 500 L 55 481 Q 55 471 65 471 Z" opacity="0.2"/></g><g transform="translate(-38,-253) scale(1,1)"><path fill="#ffffff" stroke="none" d="M 58 464 L 217.4599609375 464 Q 227.4599609375 464 227.4599609375 474 L 227.4599609375 493 Q 227.4599609375 503 217.4599609375 503 L 58 503 Q 48 503 48 493 L 48 474 Q 48 464 58 464 Z"/></g><g transform="translate(-38,-253) scale(1,1)"><path fill="none" stroke="#000000" d="M 58 464 L 217.4599609375 464 Q 227.4599609375 464 227.4599609375 474 L 227.4599609375 493 Q 227.4599609375 503 217.4599609375 503 L 58 503 Q 48 503 48 493 L 48 474 Q 48 464 58 464 Z" stroke-miterlimit="10"/></g><g transform="translate(-38,-253) scale(1,1)"><g><path fill="none" stroke="none"/><text fill="#000000" stroke="none" font-family="Arial" font-size="13px" font-style="normal" font-weight="bold" text-decoration="none" x="58.6064453125" y="483.5">Send Reminder Notification</text></g></g><g transform="translate(-38,-253) scale(1,1)"><path fill="none" stroke="#000000" d="M 141 304 L 137 463" stroke-miterlimit="10"/></g><g transform="translate(-38,-253) scale(1,1)"><path fill="none" stroke="#000000" d="M 133.04739759650818 452.73467320345276 L 137 463 L 141.4637702260912 452.9464058482221" stroke-miterlimit="10"/></g><g transform="translate(-38,-253) scale(1,1)"><g><path fill="none" stroke="none"/><text fill="#000000" stroke="none" font-family="Arial" font-size="13px" font-style="normal" font-weight="normal" text-decoration="none" x="157.5" y="428.5">when event will start in 24hrs</text></g></g></g></svg>